<svg xmlns="http://www.w3.org/2000/svg" xmlns:xlink="http://www.w3.org/1999/xlink" width="1920" zoomAndPan="magnify" viewBox="0 0 1440 809.999993" height="1080" preserveAspectRatio="xMidYMid meet" version="1.0"><defs><clipPath id="id1"><path d="M 420.679688 96 L 1079.597656 96 L 1079.597656 594.207031 L 420.679688 594.207031 Z M 420.679688 96 " clip-rule="nonzero"/></clipPath><clipPath id="id2"><path d="M 451.863281 182.246094 L 1048.929688 182.246094 L 1048.929688 500.453125 L 451.863281 500.453125 Z M 451.863281 182.246094 " clip-rule="nonzero"/></clipPath><clipPath id="id3"><path d="M 451.863281 248.332031 L 1048.929688 248.332031 L 1048.929688 566.539062 L 451.863281 566.539062 Z M 451.863281 248.332031 " clip-rule="nonzero"/></clipPath><clipPath id="id4"><path d="M 466.664062 300.578125 L 1024.007812 300.578125 L 1024.007812 596.289062 L 466.664062 596.289062 Z M 466.664062 300.578125 " clip-rule="nonzero"/></clipPath><clipPath id="id5"><path d="M 583 246.898438 L 898 246.898438 L 898 563.5 L 583 563.5 Z M 583 246.898438 " clip-rule="nonzero"/></clipPath></defs><rect x="-144" width="1728" fill="rgb(100%, 100%, 100%)" y="-80.999999" height="971.999992" fill-opacity="1"/><rect x="-144" width="1728" fill="rgb(100%, 100%, 100%)" y="-80.999999" height="971.999992" fill-opacity="1"/><rect x="-144" width="1728" fill="rgb(100%, 100%, 100%)" y="-80.999999" height="971.999992" fill-opacity="1"/><path fill="rgb(6.269836%, 18.03894%, 44.309998%)" d="M 1040.328125 655.976562 C 1040.410156 663.855469 1038.378906 674.152344 1036.261719 682.644531 C 1021.476562 742.347656 955.8125 809.347656 863.390625 803.25 C 779.628906 797.738281 711.40625 757.546875 711.40625 701.179688 C 711.40625 644.816406 779.460938 599.113281 863.390625 599.113281 C 947.320312 599.113281 1039.796875 599.613281 1040.328125 655.976562 Z M 1040.328125 655.976562 " fill-opacity="1" fill-rule="nonzero"/><path fill="rgb(34.118652%, 67.059326%, 85.488892%)" d="M 863.390625 608.574219 C 818.308594 608.574219 715.414062 621.046875 691.800781 621.046875 C 650.089844 621.046875 616.253906 647.210938 616.253906 679.496094 C 616.253906 695.027344 624.21875 709.058594 636.972656 719.523438 C 636.972656 719.523438 664.984375 747.609375 715.445312 734.136719 C 737.527344 728.234375 773.449219 684.425781 836.6875 677.464844 C 868.179688 673.984375 927.1875 698.339844 1030.886719 698.925781 C 1035.34375 689.351562 1036.261719 682.699219 1036.261719 682.699219 C 1036.261719 626.277344 947.320312 608.574219 863.390625 608.574219 Z M 863.390625 608.574219 " fill-opacity="1" fill-rule="nonzero"/><path fill="rgb(6.269836%, 18.03894%, 44.309998%)" d="M 1036.261719 682.644531 C 1036.261719 682.644531 1097.078125 670.3125 1134.894531 620.597656 C 1178.976562 562.621094 1173.183594 500.578125 1173.183594 500.578125 C 1217.847656 417.074219 1159.257812 338.773438 1159.257812 338.773438 C 1153.441406 250.621094 1098.917969 214.105469 1098.917969 214.105469 C 1063.523438 130.015625 985.21875 107.414062 985.21875 107.414062 C 923.734375 35.515625 814.660156 37.828125 814.660156 37.828125 C 814.660156 37.828125 712.464844 0.390625 572.175781 42.476562 C 548.976562 49.433594 471.230469 65.660156 414.367188 100.453125 C 235.148438 210.125 221.589844 381.140625 224.09375 408.945312 C 237.988281 564.347656 347.0625 592.179688 416.679688 608.40625 C 432.914062 652.46875 492.671875 733.664062 599.992188 703.519531 C 732.261719 680.332031 787.957031 640.890625 820.453125 640.890625 C 852.949219 640.890625 943.449219 675.683594 1036.261719 682.644531 Z M 1036.261719 682.644531 " fill-opacity="1" fill-rule="nonzero"/><path fill="rgb(6.269836%, 18.03894%, 44.309998%)" d="M 701.742188 432.773438 C 766.570312 397.839844 801.710938 401.097656 832.734375 403.90625 C 842.589844 404.796875 851.917969 405.492188 861.359375 405.4375 C 916.605469 404.1875 961.355469 380.917969 981.152344 358.398438 C 986.222656 352.609375 985.636719 343.839844 979.871094 338.746094 C 974.136719 333.679688 965.363281 334.210938 960.214844 340 C 944.953125 357.367188 907.332031 376.546875 860.71875 377.605469 C 852.363281 377.855469 843.984375 377.019531 835.292969 376.210938 C 802.019531 373.121094 760.695312 369.335938 688.515625 408.277344 C 670 418.269531 644.601562 421.972656 617.089844 424.753906 C 555.910156 336.492188 592.726562 259.613281 603.25 241.296875 C 604.28125 241.355469 605.285156 241.6875 606.339844 241.6875 C 617.480469 241.6875 628.675781 238.960938 638.808594 233.226562 C 645.492188 229.441406 647.859375 220.949219 644.074219 214.269531 C 640.285156 207.589844 631.792969 205.222656 625.109375 209.011719 C 607.289062 219.085938 583.839844 213.269531 572.757812 196.011719 C 568.609375 189.527344 560.003906 187.632812 553.542969 191.808594 C 547.085938 195.957031 545.191406 204.554688 549.339844 211.015625 C 555.941406 221.339844 565.242188 229.105469 575.738281 234.3125 C 561.230469 263.761719 533.691406 341.195312 586.097656 427.789062 C 549.230469 431.40625 512.304688 436.613281 483.398438 455.234375 C 464.742188 467.257812 445.667969 484.851562 431.105469 505.085938 C 413.589844 502.078125 349.457031 486.296875 338.265625 415.152344 C 345.226562 409.753906 350.851562 402.628906 354.332031 393.832031 C 357.171875 386.679688 353.664062 378.605469 346.507812 375.765625 C 339.351562 372.925781 331.273438 376.433594 328.433594 383.589844 C 325.957031 389.851562 321.472656 394.414062 315.792969 396.421875 C 310.167969 398.425781 303.789062 397.757812 297.886719 394.472656 C 291.121094 390.714844 282.683594 393.191406 278.953125 399.871094 C 275.21875 406.578125 277.644531 415.070312 284.355469 418.800781 C 292.261719 423.195312 300.726562 425.421875 309.136719 425.421875 C 310.167969 425.421875 311.140625 424.949219 312.171875 424.894531 C 325.425781 492.058594 378.53125 521.5625 416.09375 530.5 C 411.195312 541.300781 407.878906 552.433594 406.878906 563.679688 C 406.210938 571.304688 411.863281 578.097656 419.519531 578.765625 L 420.773438 578.820312 C 427.902344 578.820312 434 573.390625 434.640625 566.128906 C 437.648438 532.363281 469.867188 497.097656 498.492188 478.585938 C 525.335938 461.300781 564.628906 457.65625 602.664062 454.121094 C 639.5625 450.753906 674.425781 447.523438 701.742188 432.773438 Z M 1060.015625 390.910156 C 1056.367188 397.644531 1058.875 406.105469 1065.585938 409.753906 C 1067.699219 410.921875 1070.011719 411.476562 1072.265625 411.476562 C 1077.167969 411.476562 1081.929688 408.890625 1084.464844 404.269531 C 1084.992188 403.324219 1135.757812 308.269531 1040.71875 244.386719 C 1034.367188 240.15625 1025.707031 241.800781 1021.390625 248.171875 C 1017.105469 254.546875 1018.800781 263.203125 1025.179688 267.492188 C 1098.804688 316.980469 1061.628906 387.902344 1060.015625 390.910156 Z M 482.84375 166.171875 C 487.1875 166.171875 491.449219 164.167969 494.148438 160.382812 C 534.527344 104.242188 590.441406 123.445312 592.808594 124.335938 C 600.019531 126.953125 607.957031 123.28125 610.628906 116.097656 C 613.304688 108.890625 609.628906 100.898438 602.414062 98.226562 C 575.683594 88.320312 513.945312 85.203125 471.539062 144.15625 C 467.054688 150.363281 468.472656 159.074219 474.710938 163.554688 C 477.191406 165.335938 480.03125 166.171875 482.84375 166.171875 Z M 846.851562 113.621094 C 908.808594 108.582031 936.988281 153.480469 938.269531 155.59375 C 940.886719 159.992188 945.511719 162.441406 950.273438 162.441406 C 952.667969 162.441406 955.117188 161.832031 957.316406 160.523438 C 963.945312 156.625 966.171875 148.109375 962.300781 141.484375 C 960.796875 138.949219 924.988281 79.746094 844.679688 85.871094 C 837.019531 86.453125 831.3125 93.164062 831.898438 100.84375 C 832.511719 108.5 839.445312 114.316406 846.851562 113.621094 Z M 1101.644531 520.3125 C 1094.796875 519.921875 1087.25 525.351562 1086.636719 533.03125 C 1086.582031 533.53125 1082.152344 580.878906 1033.449219 596.882812 C 1026.152344 599.277344 1022.171875 607.128906 1024.59375 614.449219 C 1026.488281 620.292969 1031.972656 624.023438 1037.820312 624.023438 C 1039.269531 624.023438 1040.71875 623.800781 1042.164062 623.328125 C 1108.21875 601.671875 1114.175781 538.042969 1114.398438 535.34375 C 1114.984375 527.660156 1109.304688 520.925781 1101.644531 520.3125 Z M 1101.644531 520.3125 " fill-opacity="1" fill-rule="nonzero"/><path fill="rgb(6.269836%, 18.03894%, 44.309998%)" d="M 412.417969 385.0625 C 410.414062 392.496094 414.8125 400.121094 422.25 402.125 C 423.445312 402.460938 424.671875 402.597656 425.867188 402.597656 C 432.023438 402.597656 437.621094 398.507812 439.292969 392.300781 C 444.582031 372.511719 465.105469 359.816406 485.292969 364.078125 C 492.839844 365.605469 500.191406 360.847656 501.777344 353.304688 C 503.367188 345.789062 498.546875 338.414062 491 336.824219 C 479.140625 334.320312 467.222656 335.488281 456.25 339.21875 C 423.78125 283.71875 430.101562 228.996094 430.183594 228.410156 C 431.1875 220.8125 425.839844 213.824219 418.238281 212.765625 C 410.664062 211.847656 403.648438 217.054688 402.589844 224.652344 C 402.226562 227.351562 394.792969 289.117188 432.191406 353.082031 C 422.890625 361.460938 415.816406 372.398438 412.417969 385.0625 Z M 723.714844 316.3125 C 735.046875 305.820312 753.230469 306.011719 764.230469 316.730469 C 766.960938 319.347656 770.441406 320.652344 773.949219 320.652344 C 777.597656 320.652344 781.21875 319.234375 783.917969 316.421875 C 789.265625 310.914062 789.152344 302.089844 783.640625 296.746094 C 777.234375 290.539062 769.578125 286.390625 761.445312 283.800781 C 769.6875 255.519531 766.429688 242.96875 758.773438 219.449219 C 757.4375 215.355469 755.960938 210.792969 754.402344 205.585938 L 753.566406 202.800781 C 743.429688 169.179688 736.71875 146.996094 755.988281 115.679688 C 760.027344 109.140625 757.964844 100.566406 751.421875 96.53125 C 744.988281 92.523438 736.328125 94.5 732.261719 101.09375 C 706.421875 143.070312 715.917969 174.496094 726.917969 210.875 L 727.75 213.65625 C 729.394531 219.058594 730.898438 223.789062 732.289062 228.046875 C 739.167969 249.230469 741.257812 256.328125 732.847656 281.9375 C 722.574219 283.855469 712.742188 288.503906 704.722656 295.964844 C 699.097656 301.199219 698.792969 310.019531 704.027344 315.644531 C 709.289062 321.265625 718.117188 321.546875 723.714844 316.3125 Z M 900.957031 233.226562 C 909.058594 233.226562 917.246094 231.527344 924.875 227.910156 C 931.839844 224.625 934.816406 216.332031 931.53125 209.371094 C 928.273438 202.414062 919.863281 199.519531 913.015625 202.71875 C 899.035156 209.289062 881.796875 203.582031 874.472656 190 C 870.828125 183.207031 862.332031 180.730469 855.621094 184.292969 C 848.855469 187.910156 846.292969 196.371094 849.941406 203.136719 C 854.953125 212.488281 862.417969 219.867188 871.105469 224.988281 C 856.152344 261.3125 864.644531 299.890625 871.578125 320.347656 C 873.527344 326.164062 878.957031 329.8125 884.777344 329.8125 C 886.253906 329.8125 887.730469 329.589844 889.234375 329.089844 C 896.527344 326.640625 900.425781 318.734375 897.949219 311.46875 C 893.269531 297.605469 884.191406 262.589844 897.894531 232.808594 C 898.953125 232.863281 899.925781 233.226562 900.957031 233.226562 Z M 1034.535156 495.679688 C 1034.007812 488.023438 1027.378906 481.984375 1019.75 482.679688 C 991.511719 484.683594 967.453125 463.277344 965.53125 435.277344 C 964.976562 427.621094 958.152344 421.917969 950.691406 422.335938 C 943.03125 422.863281 937.238281 429.515625 937.742188 437.167969 C 938.882812 453.59375 945.148438 468.398438 954.671875 480.453125 C 932.285156 506.785156 902.960938 514.273438 886.617188 516.191406 C 872.164062 517.917969 859.519531 516.441406 844.902344 514.71875 C 831.507812 513.1875 816.359375 511.433594 797.617188 511.988281 L 797.480469 512.015625 C 796.921875 504.054688 795.027344 492.449219 788.984375 482.789062 C 784.921875 476.304688 776.316406 474.328125 769.800781 478.394531 C 763.3125 482.457031 761.304688 491.058594 765.398438 497.570312 C 769.132812 503.554688 769.828125 513.101562 769.828125 517.75 C 755.792969 522.789062 743.652344 530.191406 732.679688 537.347656 C 713.078125 550.09375 697.621094 560.171875 674.371094 554.9375 C 653.320312 550.121094 632.238281 549.148438 614.359375 551.652344 C 611.578125 544.667969 607.175781 536.316406 600.382812 529.886719 C 594.785156 524.597656 585.984375 524.820312 580.695312 530.445312 C 575.433594 536.011719 575.65625 544.835938 581.25 550.121094 C 583.648438 552.378906 585.539062 555.660156 587.070312 558.945312 C 556.355469 571.582031 540.957031 592.710938 540.234375 593.738281 C 535.777344 599.972656 537.253906 608.574219 543.4375 613.054688 C 545.886719 614.808594 548.726562 615.671875 551.566406 615.671875 C 555.882812 615.671875 560.144531 613.695312 562.875 609.96875 C 563.011719 609.746094 578.300781 589.285156 608.457031 581.019531 C 624.050781 576.734375 646.414062 577.09375 668.214844 582.050781 C 674.316406 583.441406 679.96875 583.914062 685.453125 583.996094 C 688.042969 590.066406 689.046875 597.273438 689.183594 599.945312 C 689.628906 607.351562 695.757812 613.085938 703.078125 613.085938 L 703.832031 613.058594 C 711.488281 612.640625 717.363281 606.152344 717.003906 598.5 C 716.917969 597.109375 716.363281 588.867188 713.382812 579.40625 C 726.21875 574.757812 737.386719 567.492188 747.886719 560.671875 C 763.8125 550.289062 778.878906 540.464844 798.566406 539.824219 C 815.050781 539.238281 828.640625 540.824219 841.753906 542.355469 C 854.953125 543.886719 867.929688 544.890625 882.242188 544.054688 C 884.777344 551.097656 884.582031 560.503906 884.191406 563.648438 C 883.273438 571.25 888.648438 578.207031 896.277344 579.210938 C 896.863281 579.292969 897.449219 579.320312 898.03125 579.320312 C 904.910156 579.320312 910.898438 574.226562 911.816406 567.214844 C 912.039062 565.488281 913.460938 552.960938 910.171875 539.90625 C 930.167969 534.535156 954.949219 522.871094 975.472656 498.960938 C 987.476562 506.3125 1001.480469 510.625 1016.378906 510.625 C 1018.105469 510.625 1019.859375 510.570312 1021.585938 510.457031 C 1029.246094 509.957031 1035.035156 503.359375 1034.535156 495.679688 Z M 1034.535156 495.679688 " fill-opacity="1" fill-rule="nonzero"/><g clip-path="url(#id1)"><path fill="rgb(100%, 100%, 100%)" d="M 844.34375 271.28125 C 844.34375 262.296875 837.0625 255.027344 828.082031 255.027344 C 819.101562 255.027344 811.824219 262.296875 811.824219 271.28125 C 811.824219 280.261719 819.101562 287.535156 828.082031 287.535156 C 837.0625 287.535156 844.34375 280.261719 844.34375 271.28125 Z M 861.050781 408.960938 C 852.0625 408.960938 844.78125 416.234375 844.78125 425.21875 C 844.78125 434.195312 852.0625 441.476562 861.050781 441.476562 C 870.023438 441.476562 877.308594 434.195312 877.308594 425.21875 C 877.308594 416.234375 870.023438 408.960938 861.050781 408.960938 Z M 596.21875 450.839844 C 589.867188 457.191406 589.867188 467.484375 596.21875 473.835938 C 602.570312 480.183594 612.863281 480.183594 619.214844 473.835938 C 625.566406 467.484375 625.566406 457.191406 619.214844 450.839844 C 612.863281 444.492188 602.570312 444.492188 596.21875 450.839844 Z M 673.890625 294.984375 C 664.910156 294.984375 657.632812 302.257812 657.632812 311.238281 C 657.632812 320.214844 664.910156 327.496094 673.890625 327.496094 C 682.875 327.496094 690.152344 320.214844 690.152344 311.238281 C 690.152344 302.257812 682.875 294.984375 673.890625 294.984375 Z M 1039.585938 330.765625 C 1018.820312 307.285156 991.800781 290.550781 961.957031 282.421875 C 959.917969 219.644531 908.207031 169.195312 844.933594 169.195312 C 837.589844 169.195312 830.324219 169.875 823.195312 171.21875 C 810.878906 151.5 794.386719 134.648438 774.722656 121.847656 C 748.816406 104.980469 718.714844 96.058594 687.675781 96.058594 C 599.613281 96.058594 527.964844 167.691406 527.964844 255.742188 C 527.964844 265.527344 528.847656 275.21875 530.601562 284.734375 C 503.179688 293.742188 478.46875 310.136719 459.371094 332.285156 C 434.421875 361.222656 420.679688 398.230469 420.679688 436.484375 C 420.679688 437.585938 420.691406 438.683594 420.714844 439.777344 C 422.046875 505.183594 463.636719 560.347656 521.320312 583.015625 L 521.320312 410.609375 C 512.789062 406.101562 506.980469 397.140625 506.980469 386.820312 C 506.980469 371.605469 519.605469 359.34375 534.945312 359.925781 C 548.816406 360.460938 560.148438 371.695312 560.78125 385.5625 C 561.273438 396.410156 555.34375 405.917969 546.472656 410.609375 L 546.472656 590.566406 C 557.238281 592.859375 568.394531 594.066406 579.808594 594.066406 L 680.566406 594.066406 L 680.566406 538.785156 L 615.648438 488.054688 C 606.425781 490.886719 595.980469 488.65625 588.683594 481.363281 C 577.925781 470.609375 578.179688 453.011719 589.441406 442.578125 C 599.621094 433.144531 615.589844 433.082031 625.835938 442.4375 C 633.855469 449.757812 636.386719 460.675781 633.433594 470.269531 L 705.722656 528.367188 L 705.722656 594.066406 L 738.191406 594.066406 L 738.191406 486.621094 L 661.316406 426.261719 L 661.316406 335.03125 C 652.445312 330.335938 646.511719 320.828125 647.007812 309.984375 C 647.640625 296.113281 658.972656 284.878906 672.839844 284.347656 C 688.183594 283.765625 700.808594 296.027344 700.808594 311.238281 C 700.808594 321.558594 694.996094 330.519531 686.46875 335.03125 L 686.46875 414.03125 L 738.191406 454.640625 L 738.191406 253.464844 C 729.664062 248.945312 723.851562 239.988281 723.851562 229.667969 C 723.851562 214.460938 736.472656 202.199219 751.816406 202.78125 C 765.6875 203.308594 777.023438 214.550781 777.648438 228.410156 C 778.144531 239.253906 772.214844 248.761719 763.339844 253.464844 L 763.339844 385.085938 L 815.507812 344.132812 L 815.507812 295.074219 C 806.976562 290.558594 801.167969 281.601562 801.167969 271.28125 C 801.167969 256.066406 813.789062 243.804688 829.132812 244.386719 C 843 244.921875 854.332031 256.15625 854.96875 270.023438 C 855.464844 280.871094 849.527344 290.375 840.660156 295.074219 L 840.660156 356.355469 L 763.339844 417.0625 L 763.339844 594.066406 L 917.03125 594.066406 L 848.464844 540.242188 L 848.464844 449.011719 C 839.605469 444.3125 833.667969 434.804688 834.15625 423.960938 C 834.792969 410.09375 846.128906 398.859375 860 398.328125 C 875.339844 397.746094 887.964844 410.007812 887.964844 425.21875 C 887.964844 435.539062 882.152344 444.496094 873.625 449.011719 L 873.625 528.011719 L 925.339844 568.621094 L 925.339844 367.445312 C 916.816406 362.925781 911 353.96875 911 343.644531 C 911 328.441406 923.632812 316.175781 938.972656 316.761719 C 952.835938 317.285156 964.175781 328.527344 964.804688 342.390625 C 965.296875 353.234375 959.371094 362.742188 950.496094 367.445312 L 950.496094 591.761719 C 980.917969 586.507812 1009.367188 572.402344 1031.667969 550.535156 C 1032.429688 549.789062 1033.1875 549.035156 1033.941406 548.261719 C 1063.386719 518.238281 1079.597656 478.535156 1079.597656 436.484375 C 1079.597656 397.496094 1065.386719 359.953125 1039.585938 330.765625 Z M 533.894531 370.566406 C 524.914062 370.566406 517.632812 377.839844 517.632812 386.820312 C 517.632812 395.796875 524.914062 403.074219 533.894531 403.074219 C 542.875 403.074219 550.15625 395.796875 550.15625 386.820312 C 550.15625 377.839844 542.875 370.566406 533.894531 370.566406 Z M 750.765625 213.410156 C 741.785156 213.410156 734.507812 220.695312 734.507812 229.667969 C 734.507812 238.652344 741.785156 245.929688 750.765625 245.929688 C 759.746094 245.929688 767.023438 238.652344 767.023438 229.667969 C 767.023438 220.695312 759.746094 213.410156 750.765625 213.410156 Z M 937.914062 327.390625 C 928.9375 327.390625 921.65625 334.671875 921.65625 343.644531 C 921.65625 352.632812 928.9375 359.910156 937.914062 359.910156 C 946.898438 359.910156 954.179688 352.632812 954.179688 343.644531 C 954.179688 334.671875 946.898438 327.390625 937.914062 327.390625 " fill-opacity="1" fill-rule="nonzero"/></g><g clip-path="url(#id2)"><path fill="rgb(100%, 100%, 100%)" d="M 561.265625 280.839844 C 571.179688 280.839844 580.777344 282.1875 589.910156 284.667969 C 610.296875 225.160156 666.542969 182.375 732.785156 182.375 C 795.632812 182.375 849.5 220.878906 872.265625 275.648438 C 880.382812 273.066406 889.023438 271.664062 897.992188 271.664062 C 944.953125 271.664062 983.019531 309.851562 983.019531 356.960938 C 983.019531 357.015625 983.015625 357.070312 983.015625 357.128906 C 1020.25 359.558594 1049.710938 390.605469 1049.710938 428.570312 C 1049.710938 468.125 1017.746094 500.1875 978.316406 500.1875 C 977.222656 500.1875 976.136719 500.15625 975.058594 500.105469 L 975.050781 500.1875 L 974.5 500.085938 C 974.007812 500.058594 973.523438 500.007812 973.035156 499.972656 L 569.660156 499.972656 C 566.886719 500.1875 564.09375 500.324219 561.265625 500.324219 C 500.839844 500.324219 451.863281 451.195312 451.863281 390.585938 C 451.863281 329.976562 500.839844 280.839844 561.265625 280.839844 Z M 561.265625 280.839844 " fill-opacity="1" fill-rule="nonzero"/></g><g clip-path="url(#id3)"><path fill="rgb(100%, 100%, 100%)" d="M 561.265625 346.925781 C 571.179688 346.925781 580.777344 348.273438 589.910156 350.753906 C 610.296875 291.246094 666.542969 248.460938 732.785156 248.460938 C 795.632812 248.460938 849.5 286.964844 872.265625 341.734375 C 880.382812 339.152344 889.023438 337.75 897.992188 337.75 C 944.953125 337.75 983.019531 375.9375 983.019531 423.046875 C 983.019531 423.101562 983.015625 423.15625 983.015625 423.214844 C 1020.25 425.640625 1049.710938 456.691406 1049.710938 494.65625 C 1049.710938 534.210938 1017.746094 566.273438 978.316406 566.273438 C 977.222656 566.273438 976.136719 566.242188 975.058594 566.191406 L 975.050781 566.273438 L 974.5 566.171875 C 974.007812 566.144531 973.523438 566.09375 973.035156 566.058594 L 569.660156 566.058594 C 566.886719 566.269531 564.09375 566.410156 561.265625 566.410156 C 500.839844 566.410156 451.863281 517.277344 451.863281 456.671875 C 451.863281 396.0625 500.839844 346.925781 561.265625 346.925781 Z M 561.265625 346.925781 " fill-opacity="1" fill-rule="nonzero"/></g><g clip-path="url(#id4)"><path fill="rgb(100%, 100%, 100%)" d="M 568.386719 392.203125 C 577.636719 392.203125 586.589844 393.453125 595.109375 395.761719 C 614.125 340.460938 666.589844 300.703125 728.378906 300.703125 C 787.003906 300.703125 837.25 336.484375 858.488281 387.378906 C 866.058594 384.980469 874.121094 383.675781 882.488281 383.675781 C 926.292969 383.675781 961.796875 419.164062 961.796875 462.9375 C 961.796875 462.992188 961.796875 463.042969 961.796875 463.09375 C 996.527344 465.351562 1024.007812 494.203125 1024.007812 529.484375 C 1024.007812 566.242188 994.191406 596.035156 957.414062 596.035156 C 956.390625 596.035156 955.378906 596.003906 954.371094 595.957031 L 954.367188 596.035156 L 953.851562 595.941406 C 953.394531 595.914062 952.941406 595.871094 952.488281 595.835938 L 576.21875 595.835938 C 573.632812 596.035156 571.023438 596.164062 568.386719 596.164062 C 512.027344 596.164062 466.339844 550.507812 466.339844 494.1875 C 466.339844 437.863281 512.023438 392.203125 568.386719 392.203125 Z M 568.386719 392.203125 " fill-opacity="1" fill-rule="nonzero"/></g><g clip-path="url(#id5)"><path fill="rgb(6.269836%, 18.03894%, 44.309998%)" d="M 634.328125 460.746094 C 626.511719 448.574219 621.960938 433.96875 621.960938 418.261719 C 621.960938 375.800781 655.230469 341.378906 696.269531 341.378906 C 713.457031 341.378906 729.28125 347.414062 741.867188 357.550781 L 777.628906 323.234375 C 776.699219 318.863281 776.226562 314.515625 776.226562 310.28125 C 776.230469 275.347656 804.652344 246.925781 839.582031 246.925781 C 864.6875 246.925781 887.445312 261.804688 897.566406 284.820312 C 898.117188 286.058594 898 287.492188 897.257812 288.625 C 896.515625 289.757812 895.253906 290.441406 893.898438 290.441406 L 826.90625 290.441406 L 826.90625 330.121094 L 893.898438 330.121094 C 895.253906 330.121094 896.515625 330.804688 897.257812 331.9375 C 898 333.074219 898.117188 334.503906 897.566406 335.742188 C 887.445312 358.761719 864.6875 373.628906 839.582031 373.628906 C 833.894531 373.628906 828.234375 372.859375 822.722656 371.335938 L 770.207031 426.015625 C 766.710938 462.128906 739.0625 490.875 704.222656 494.710938 L 650.777344 550.355469 C 643.527344 558.785156 632.984375 563.613281 621.863281 563.613281 C 611.683594 563.613281 602.109375 559.648438 594.90625 552.445312 C 587.429688 544.964844 583.363281 534.613281 583.757812 524.046875 C 584.15625 513.484375 588.980469 503.46875 596.996094 496.570312 Z M 696.542969 488.703125 C 733.851562 488.703125 764.09375 457.410156 764.09375 418.808594 C 764.09375 380.207031 733.851562 348.914062 696.542969 348.914062 C 659.234375 348.914062 628.988281 380.207031 628.988281 418.808594 C 628.988281 457.410156 659.234375 488.703125 696.542969 488.703125 Z M 675.808594 390.695312 L 654.59375 417.199219 L 675.808594 445.167969 L 661.808594 445.167969 L 640.59375 417.34375 L 661.808594 390.695312 Z M 711.519531 390.695312 L 695.253906 445.167969 L 683.375 445.167969 L 699.640625 390.695312 Z M 717.882812 445.167969 L 739.097656 418.664062 L 717.882812 390.695312 L 731.882812 390.695312 L 753.097656 418.515625 L 731.882812 445.167969 Z M 717.882812 445.167969 " fill-opacity="1" fill-rule="nonzero"/></g></svg>