<svg xmlns="http://www.w3.org/2000/svg" xmlns:xlink="http://www.w3.org/1999/xlink" width="1920" zoomAndPan="magnify" viewBox="0 0 1440 809.999993" height="1080" preserveAspectRatio="xMidYMid meet" version="1.0"><defs><clipPath id="id1"><path d="M 420.679688 96 L 1079.929688 96 L 1079.929688 594.75 L 420.679688 594.75 Z M 420.679688 96 " clip-rule="nonzero"/></clipPath><clipPath id="id2"><path d="M 451.214844 182.246094 L 1049.585938 182.246094 L 1049.585938 500.246094 L 451.214844 500.246094 Z M 451.214844 182.246094 " clip-rule="nonzero"/></clipPath><clipPath id="id3"><path d="M 451.214844 248.332031 L 1049.585938 248.332031 L 1049.585938 566.332031 L 451.214844 566.332031 Z M 451.214844 248.332031 " clip-rule="nonzero"/></clipPath><clipPath id="id4"><path d="M 466.757812 300.578125 L 1023.914062 300.578125 L 1023.914062 596 L 466.757812 596 Z M 466.757812 300.578125 " clip-rule="nonzero"/></clipPath><clipPath id="id5"><path d="M 337.652344 453 L 496 453 L 496 466 L 337.652344 466 Z M 337.652344 453 " clip-rule="nonzero"/></clipPath><clipPath id="id6"><path d="M 1035 376 L 1077.152344 376 L 1077.152344 418 L 1035 418 Z M 1035 376 " clip-rule="nonzero"/></clipPath></defs><rect x="-144" width="1728" fill="rgb(100%, 100%, 100%)" y="-80.999999" height="971.999992" fill-opacity="1"/><rect x="-144" width="1728" fill="rgb(100%, 100%, 100%)" y="-80.999999" height="971.999992" fill-opacity="1"/><rect x="-144" width="1728" fill="rgb(100%, 100%, 100%)" y="-80.999999" height="971.999992" fill-opacity="1"/><path fill="rgb(6.269836%, 18.03894%, 44.309998%)" d="M 1040.082031 655.988281 C 1040.164062 663.867188 1038.132812 674.164062 1036.019531 682.65625 C 1021.234375 742.359375 955.59375 809.359375 863.199219 803.265625 C 779.460938 797.753906 711.257812 757.558594 711.257812 701.191406 C 711.257812 644.828125 779.292969 599.121094 863.199219 599.121094 C 947.101562 599.121094 1039.554688 599.621094 1040.082031 655.988281 Z M 1040.082031 655.988281 " fill-opacity="1" fill-rule="nonzero"/><path fill="rgb(34.118652%, 67.059326%, 85.488892%)" d="M 863.199219 608.585938 C 818.128906 608.585938 715.265625 621.054688 691.660156 621.054688 C 649.957031 621.054688 616.132812 647.222656 616.132812 679.507812 C 616.132812 695.042969 624.09375 709.070312 636.84375 719.535156 C 636.84375 719.535156 664.851562 747.621094 715.292969 734.148438 C 737.367188 728.25 773.28125 684.4375 836.5 677.476562 C 867.984375 673.996094 926.976562 698.355469 1030.644531 698.9375 C 1035.097656 689.363281 1036.019531 682.710938 1036.019531 682.710938 C 1036.019531 626.289062 947.101562 608.585938 863.199219 608.585938 Z M 863.199219 608.585938 " fill-opacity="1" fill-rule="nonzero"/><path fill="rgb(6.269836%, 18.03894%, 44.309998%)" d="M 1036.019531 682.65625 C 1036.019531 682.65625 1096.816406 670.324219 1134.621094 620.609375 C 1178.6875 562.628906 1172.898438 500.585938 1172.898438 500.585938 C 1217.550781 417.082031 1158.980469 338.78125 1158.980469 338.78125 C 1153.160156 250.625 1098.652344 214.105469 1098.652344 214.105469 C 1063.273438 130.019531 984.992188 107.414062 984.992188 107.414062 C 923.523438 35.519531 814.480469 37.828125 814.480469 37.828125 C 814.480469 37.828125 712.3125 0.390625 572.066406 42.476562 C 548.875 49.433594 471.152344 65.664062 414.304688 100.457031 C 235.136719 210.125 221.582031 381.144531 224.085938 408.953125 C 237.976562 564.355469 347.019531 592.191406 416.617188 608.417969 C 432.84375 652.480469 492.585938 733.675781 599.875 703.53125 C 732.105469 680.34375 787.785156 640.902344 820.269531 640.902344 C 852.757812 640.902344 943.234375 675.695312 1036.019531 682.65625 Z M 1036.019531 682.65625 " fill-opacity="1" fill-rule="nonzero"/><path fill="rgb(6.269836%, 18.03894%, 44.309998%)" d="M 701.597656 432.78125 C 766.402344 397.847656 801.535156 401.101562 832.546875 403.914062 C 842.402344 404.804688 851.726562 405.5 861.164062 405.445312 C 916.398438 404.191406 961.132812 380.921875 980.925781 358.402344 C 985.992188 352.613281 985.40625 343.847656 979.644531 338.753906 C 973.910156 333.6875 965.140625 334.214844 959.992188 340.003906 C 944.734375 357.375 907.125 376.550781 860.527344 377.609375 C 852.175781 377.859375 843.792969 377.027344 835.109375 376.21875 C 801.84375 373.128906 760.53125 369.34375 688.375 408.285156 C 669.859375 418.277344 644.472656 421.980469 616.96875 424.761719 C 555.808594 336.496094 592.609375 259.617188 603.132812 241.300781 C 604.164062 241.359375 605.164062 241.691406 606.222656 241.691406 C 617.359375 241.691406 628.550781 238.964844 638.683594 233.230469 C 645.363281 229.445312 647.730469 220.953125 643.945312 214.273438 C 640.15625 207.59375 631.667969 205.226562 624.984375 209.011719 C 607.167969 219.089844 583.730469 213.273438 572.648438 196.015625 C 568.5 189.527344 559.898438 187.636719 553.441406 191.8125 C 546.984375 195.957031 545.089844 204.558594 549.238281 211.019531 C 555.835938 221.34375 565.132812 229.109375 575.628906 234.316406 C 561.125 263.765625 533.59375 341.203125 585.984375 427.796875 C 549.125 431.414062 512.210938 436.621094 483.316406 455.242188 C 464.664062 467.265625 445.59375 484.859375 431.035156 505.09375 C 413.527344 502.089844 349.414062 486.304688 338.222656 415.160156 C 345.183594 409.761719 350.804688 402.632812 354.285156 393.839844 C 357.125 386.683594 353.617188 378.613281 346.464844 375.773438 C 339.308594 372.933594 331.234375 376.441406 328.394531 383.59375 C 325.917969 389.859375 321.4375 394.421875 315.757812 396.425781 C 310.132812 398.429688 303.757812 397.761719 297.859375 394.476562 C 291.09375 390.722656 282.65625 393.199219 278.925781 399.878906 C 275.199219 406.585938 277.621094 415.078125 284.328125 418.804688 C 292.234375 423.203125 300.699219 425.429688 309.105469 425.429688 C 310.132812 425.429688 311.109375 424.957031 312.140625 424.902344 C 325.390625 492.066406 378.476562 521.574219 416.03125 530.507812 C 411.132812 541.308594 407.820312 552.441406 406.816406 563.6875 C 406.148438 571.316406 411.800781 578.105469 419.457031 578.773438 L 420.707031 578.832031 C 427.835938 578.832031 433.929688 573.402344 434.570312 566.136719 C 437.578125 532.375 469.785156 497.105469 498.40625 478.597656 C 525.242188 461.3125 564.519531 457.664062 602.546875 454.128906 C 639.433594 450.761719 674.289062 447.53125 701.597656 432.78125 Z M 1059.765625 390.914062 C 1056.117188 397.652344 1058.621094 406.113281 1065.332031 409.761719 C 1067.449219 410.929688 1069.757812 411.484375 1072.011719 411.484375 C 1076.914062 411.484375 1081.671875 408.898438 1084.207031 404.277344 C 1084.734375 403.328125 1135.484375 308.273438 1040.472656 244.390625 C 1034.125 240.160156 1025.46875 241.804688 1021.152344 248.175781 C 1016.867188 254.550781 1018.5625 263.207031 1024.9375 267.496094 C 1098.542969 316.984375 1061.378906 387.910156 1059.765625 390.914062 Z M 482.757812 166.175781 C 487.101562 166.175781 491.363281 164.171875 494.0625 160.386719 C 534.425781 104.242188 590.328125 123.449219 592.691406 124.339844 C 599.902344 126.957031 607.835938 123.28125 610.507812 116.101562 C 613.183594 108.890625 609.507812 100.902344 602.296875 98.230469 C 575.574219 88.320312 513.855469 85.203125 471.457031 144.15625 C 466.976562 150.363281 468.394531 159.078125 474.632812 163.558594 C 477.109375 165.339844 479.949219 166.175781 482.757812 166.175781 Z M 846.660156 113.621094 C 908.601562 108.585938 936.773438 153.484375 938.054688 155.597656 C 940.671875 159.996094 945.292969 162.445312 950.054688 162.445312 C 952.449219 162.445312 954.898438 161.832031 957.097656 160.523438 C 963.722656 156.628906 965.949219 148.109375 962.078125 141.484375 C 960.578125 138.953125 924.777344 79.746094 844.492188 85.871094 C 836.835938 86.457031 831.128906 93.164062 831.710938 100.847656 C 832.324219 108.5 839.257812 114.320312 846.660156 113.621094 Z M 1101.382812 520.320312 C 1094.535156 519.929688 1086.988281 525.359375 1086.378906 533.042969 C 1086.320312 533.542969 1081.894531 580.890625 1033.207031 596.894531 C 1025.914062 599.289062 1021.933594 607.136719 1024.355469 614.457031 C 1026.246094 620.304688 1031.730469 624.035156 1037.578125 624.035156 C 1039.023438 624.035156 1040.472656 623.8125 1041.917969 623.339844 C 1107.953125 601.683594 1113.910156 538.050781 1114.132812 535.351562 C 1114.71875 527.667969 1109.039062 520.933594 1101.382812 520.320312 Z M 1101.382812 520.320312 " fill-opacity="1" fill-rule="nonzero"/><path fill="rgb(6.269836%, 18.03894%, 44.309998%)" d="M 412.355469 385.070312 C 410.351562 392.503906 414.75 400.128906 422.183594 402.132812 C 423.378906 402.46875 424.605469 402.605469 425.800781 402.605469 C 431.953125 402.605469 437.550781 398.515625 439.21875 392.308594 C 444.511719 372.515625 465.027344 359.824219 485.210938 364.082031 C 492.753906 365.613281 500.101562 360.855469 501.691406 353.308594 C 503.277344 345.792969 498.460938 338.417969 490.917969 336.832031 C 479.058594 334.328125 467.140625 335.496094 456.175781 339.226562 C 423.714844 283.722656 430.035156 229 430.117188 228.414062 C 431.121094 220.816406 425.773438 213.828125 418.175781 212.769531 C 410.601562 211.851562 403.585938 217.058594 402.53125 224.65625 C 402.167969 227.355469 394.734375 289.121094 432.121094 353.085938 C 422.824219 361.464844 415.753906 372.40625 412.355469 385.070312 Z M 723.5625 316.316406 C 734.890625 305.824219 753.070312 306.019531 764.066406 316.734375 C 766.792969 319.351562 770.273438 320.660156 773.78125 320.660156 C 777.429688 320.660156 781.046875 319.242188 783.746094 316.429688 C 789.09375 310.917969 788.980469 302.09375 783.46875 296.75 C 777.066406 290.542969 769.410156 286.394531 761.28125 283.804688 C 769.523438 255.527344 766.265625 242.972656 758.609375 219.453125 C 757.273438 215.359375 755.796875 210.792969 754.238281 205.589844 L 753.402344 202.804688 C 743.269531 169.179688 736.5625 146.996094 755.824219 115.683594 C 759.863281 109.140625 757.800781 100.566406 751.261719 96.53125 C 744.828125 92.523438 736.171875 94.5 732.105469 101.097656 C 706.273438 143.070312 715.765625 174.496094 726.761719 210.878906 L 727.597656 213.660156 C 729.238281 219.0625 730.742188 223.792969 732.136719 228.050781 C 739.011719 249.234375 741.097656 256.332031 732.691406 281.941406 C 722.417969 283.863281 712.59375 288.511719 704.574219 295.96875 C 698.953125 301.203125 698.644531 310.027344 703.878906 315.648438 C 709.140625 321.273438 717.964844 321.550781 723.5625 316.316406 Z M 900.75 233.230469 C 908.851562 233.230469 917.039062 231.53125 924.664062 227.914062 C 931.625 224.628906 934.601562 216.335938 931.316406 209.375 C 928.0625 202.417969 919.652344 199.523438 912.804688 202.722656 C 898.832031 209.292969 881.597656 203.585938 874.277344 190.003906 C 870.628906 183.210938 862.140625 180.734375 855.429688 184.296875 C 848.667969 187.914062 846.105469 196.375 849.75 203.140625 C 854.761719 212.492188 862.222656 219.867188 870.910156 224.992188 C 855.960938 261.316406 864.449219 299.894531 871.382812 320.355469 C 873.332031 326.171875 878.757812 329.816406 884.578125 329.816406 C 886.054688 329.816406 887.527344 329.59375 889.03125 329.09375 C 896.324219 326.644531 900.222656 318.738281 897.746094 311.472656 C 893.070312 297.613281 883.992188 262.597656 897.691406 232.8125 C 898.746094 232.867188 899.722656 233.230469 900.75 233.230469 Z M 1034.292969 495.6875 C 1033.761719 488.03125 1027.136719 481.992188 1019.511719 482.6875 C 991.28125 484.691406 967.230469 463.285156 965.308594 435.285156 C 964.75 427.628906 957.929688 421.925781 950.472656 422.339844 C 942.816406 422.871094 937.023438 429.523438 937.527344 437.175781 C 938.667969 453.601562 944.929688 468.410156 954.453125 480.460938 C 932.070312 506.792969 902.757812 514.28125 886.414062 516.203125 C 871.96875 517.925781 859.328125 516.453125 844.714844 514.726562 C 831.324219 513.195312 816.179688 511.441406 797.445312 512 L 797.304688 512.027344 C 796.746094 504.066406 794.855469 492.457031 788.8125 482.800781 C 784.75 476.3125 776.148438 474.335938 769.632812 478.402344 C 763.148438 482.464844 761.144531 491.066406 765.234375 497.578125 C 768.964844 503.5625 769.660156 513.113281 769.660156 517.761719 C 755.628906 522.796875 743.492188 530.203125 732.523438 537.355469 C 712.925781 550.105469 697.476562 560.179688 674.230469 554.949219 C 653.1875 550.132812 632.113281 549.15625 614.238281 551.664062 C 611.457031 544.675781 607.058594 536.324219 600.265625 529.894531 C 594.667969 524.605469 585.871094 524.832031 580.582031 530.453125 C 575.320312 536.019531 575.542969 544.84375 581.140625 550.132812 C 583.535156 552.386719 585.425781 555.671875 586.957031 558.957031 C 556.253906 571.59375 540.859375 592.71875 540.132812 593.75 C 535.679688 599.984375 537.15625 608.585938 543.335938 613.066406 C 545.785156 614.820312 548.625 615.683594 551.464844 615.683594 C 555.78125 615.683594 560.039062 613.707031 562.765625 609.976562 C 562.90625 609.753906 578.1875 589.296875 608.339844 581.027344 C 623.929688 576.742188 646.28125 577.105469 668.078125 582.058594 C 674.175781 583.449219 679.828125 583.925781 685.3125 584.007812 C 687.898438 590.074219 688.902344 597.285156 689.042969 599.957031 C 689.488281 607.359375 695.613281 613.09375 702.933594 613.09375 L 703.683594 613.066406 C 711.339844 612.648438 717.214844 606.164062 716.851562 598.507812 C 716.769531 597.117188 716.210938 588.878906 713.234375 579.414062 C 726.066406 574.765625 737.230469 567.5 747.726562 560.683594 C 763.648438 550.300781 778.707031 540.472656 798.390625 539.832031 C 814.871094 539.25 828.457031 540.835938 841.566406 542.367188 C 854.761719 543.898438 867.734375 544.898438 882.042969 544.0625 C 884.578125 551.105469 884.382812 560.515625 883.992188 563.660156 C 883.074219 571.257812 888.449219 578.21875 896.074219 579.21875 C 896.660156 579.304688 897.246094 579.332031 897.828125 579.332031 C 904.703125 579.332031 910.691406 574.238281 911.609375 567.222656 C 911.832031 565.496094 913.25 552.972656 909.964844 539.917969 C 929.953125 534.542969 954.730469 522.882812 975.246094 498.972656 C 987.246094 506.320312 1001.25 510.632812 1016.140625 510.632812 C 1017.867188 510.632812 1019.621094 510.578125 1021.347656 510.46875 C 1029.003906 509.964844 1034.792969 503.371094 1034.292969 495.6875 Z M 1034.292969 495.6875 " fill-opacity="1" fill-rule="nonzero"/><g clip-path="url(#id1)"><path fill="rgb(100%, 100%, 100%)" d="M 844.558594 271.476562 C 844.558594 262.484375 837.273438 255.203125 828.285156 255.203125 C 819.304688 255.203125 812.019531 262.484375 812.019531 271.476562 C 812.019531 280.46875 819.304688 287.75 828.285156 287.75 C 837.273438 287.75 844.558594 280.46875 844.558594 271.476562 Z M 861.273438 409.300781 C 852.28125 409.300781 844.996094 416.582031 844.996094 425.574219 C 844.996094 434.558594 852.28125 441.847656 861.273438 441.847656 C 870.25 441.847656 877.539062 434.558594 877.539062 425.574219 C 877.539062 416.582031 870.25 409.300781 861.273438 409.300781 Z M 596.308594 451.222656 C 589.953125 457.578125 589.953125 467.882812 596.308594 474.242188 C 602.660156 480.597656 612.960938 480.597656 619.316406 474.242188 C 625.671875 467.882812 625.671875 457.578125 619.316406 451.222656 C 612.960938 444.867188 602.660156 444.867188 596.308594 451.222656 Z M 674.019531 295.203125 C 665.035156 295.203125 657.75 302.484375 657.75 311.476562 C 657.75 320.460938 665.035156 327.75 674.019531 327.75 C 683.007812 327.75 690.289062 320.460938 690.289062 311.476562 C 690.289062 302.484375 683.007812 295.203125 674.019531 295.203125 Z M 1039.898438 331.023438 C 1019.125 307.519531 992.089844 290.765625 962.230469 282.628906 C 960.191406 219.785156 908.453125 169.285156 845.148438 169.285156 C 837.800781 169.285156 830.53125 169.964844 823.398438 171.308594 C 811.078125 151.574219 794.574219 134.703125 774.902344 121.886719 C 748.980469 105.003906 718.867188 96.074219 687.808594 96.074219 C 599.703125 96.074219 528.019531 167.777344 528.019531 255.917969 C 528.019531 265.71875 528.902344 275.417969 530.660156 284.945312 C 503.21875 293.960938 478.5 310.371094 459.390625 332.546875 C 434.425781 361.511719 420.679688 398.558594 420.679688 436.851562 C 420.679688 437.953125 420.691406 439.050781 420.714844 440.148438 C 422.046875 505.621094 463.65625 560.84375 521.371094 583.535156 L 521.371094 410.949219 C 512.835938 406.4375 507.023438 397.464844 507.023438 387.136719 C 507.023438 371.90625 519.65625 359.632812 535.003906 360.214844 C 548.878906 360.75 560.21875 371.992188 560.851562 385.875 C 561.347656 396.734375 555.410156 406.253906 546.535156 410.949219 L 546.535156 591.09375 C 557.308594 593.386719 568.46875 594.597656 579.890625 594.597656 L 680.699219 594.597656 L 680.699219 539.257812 L 615.75 488.476562 C 606.519531 491.308594 596.070312 489.078125 588.769531 481.777344 C 578.007812 471.015625 578.257812 453.398438 589.527344 442.953125 C 599.710938 433.507812 615.6875 433.445312 625.941406 442.808594 C 633.964844 450.136719 636.496094 461.066406 633.542969 470.671875 L 705.863281 528.832031 L 705.863281 594.597656 L 738.351562 594.597656 L 738.351562 487.039062 L 661.441406 426.617188 L 661.441406 335.292969 C 652.5625 330.589844 646.625 321.074219 647.121094 310.21875 C 647.753906 296.335938 659.09375 285.089844 672.96875 284.554688 C 688.320312 283.972656 700.949219 296.25 700.949219 311.476562 C 700.949219 321.808594 695.136719 330.773438 686.605469 335.292969 L 686.605469 414.375 L 738.351562 455.027344 L 738.351562 253.640625 C 729.820312 249.117188 724.003906 240.152344 724.003906 229.820312 C 724.003906 214.597656 736.632812 202.324219 751.984375 202.90625 C 765.863281 203.433594 777.203125 214.683594 777.832031 228.5625 C 778.324219 239.417969 772.390625 248.933594 763.515625 253.640625 L 763.515625 385.398438 L 815.707031 344.402344 L 815.707031 295.292969 C 807.171875 290.777344 801.359375 281.804688 801.359375 271.476562 C 801.359375 256.246094 813.984375 243.972656 829.335938 244.554688 C 843.214844 245.089844 854.550781 256.335938 855.1875 270.21875 C 855.683594 281.074219 849.742188 290.59375 840.871094 295.292969 L 840.871094 356.640625 L 763.515625 417.410156 L 763.515625 594.597656 L 917.28125 594.597656 L 848.683594 540.71875 L 848.683594 449.390625 C 839.816406 444.6875 833.875 435.171875 834.367188 424.316406 C 835.003906 410.433594 846.34375 399.1875 860.222656 398.65625 C 875.570312 398.074219 888.199219 410.347656 888.199219 425.574219 C 888.199219 435.90625 882.386719 444.871094 873.851562 449.390625 L 873.851562 528.472656 L 925.597656 569.125 L 925.597656 367.742188 C 917.066406 363.214844 911.25 354.25 911.25 343.917969 C 911.25 328.695312 923.886719 316.417969 939.234375 317.003906 C 953.105469 317.53125 964.453125 328.785156 965.078125 342.660156 C 965.574219 353.515625 959.644531 363.03125 950.761719 367.742188 L 950.761719 592.289062 C 981.203125 587.03125 1009.667969 572.910156 1031.976562 551.023438 C 1032.742188 550.273438 1033.496094 549.519531 1034.253906 548.746094 C 1063.710938 518.691406 1079.929688 478.949219 1079.929688 436.851562 C 1079.929688 397.824219 1065.710938 360.238281 1039.898438 331.023438 Z M 533.953125 370.863281 C 524.964844 370.863281 517.683594 378.144531 517.683594 387.136719 C 517.683594 396.121094 524.964844 403.410156 533.953125 403.410156 C 542.9375 403.410156 550.222656 396.121094 550.222656 387.136719 C 550.222656 378.144531 542.9375 370.863281 533.953125 370.863281 Z M 750.933594 213.546875 C 741.945312 213.546875 734.664062 220.835938 734.664062 229.820312 C 734.664062 238.8125 741.945312 246.101562 750.933594 246.101562 C 759.914062 246.101562 767.199219 238.8125 767.199219 229.820312 C 767.199219 220.835938 759.914062 213.546875 750.933594 213.546875 Z M 938.175781 327.644531 C 929.195312 327.644531 921.910156 334.933594 921.910156 343.917969 C 921.910156 352.910156 929.195312 360.199219 938.175781 360.199219 C 947.164062 360.199219 954.449219 352.910156 954.449219 343.917969 C 954.449219 334.933594 947.164062 327.644531 938.175781 327.644531 " fill-opacity="1" fill-rule="nonzero"/></g><g clip-path="url(#id2)"><path fill="rgb(100%, 100%, 100%)" d="M 560.734375 280.777344 C 570.660156 280.777344 580.269531 282.121094 589.410156 284.601562 C 609.820312 225.132812 666.128906 182.375 732.441406 182.375 C 795.355469 182.375 849.285156 220.855469 872.074219 275.585938 C 880.203125 273.007812 888.851562 271.605469 897.832031 271.605469 C 944.84375 271.605469 982.949219 309.769531 982.949219 356.84375 C 982.949219 356.902344 982.945312 356.957031 982.945312 357.011719 C 1020.222656 359.441406 1049.714844 390.46875 1049.714844 428.410156 C 1049.714844 467.9375 1017.714844 499.976562 978.242188 499.976562 C 977.148438 499.976562 976.0625 499.945312 974.980469 499.894531 L 974.972656 499.976562 L 974.421875 499.875 C 973.929688 499.847656 973.445312 499.800781 972.957031 499.761719 L 569.136719 499.761719 C 566.363281 499.976562 563.566406 500.113281 560.734375 500.113281 C 500.246094 500.113281 451.214844 451.015625 451.214844 390.449219 C 451.214844 329.882812 500.246094 280.777344 560.734375 280.777344 Z M 560.734375 280.777344 " fill-opacity="1" fill-rule="nonzero"/></g><g clip-path="url(#id3)"><path fill="rgb(100%, 100%, 100%)" d="M 560.734375 346.859375 C 570.660156 346.859375 580.269531 348.207031 589.410156 350.6875 C 609.820312 291.21875 666.128906 248.460938 732.441406 248.460938 C 795.355469 248.460938 849.285156 286.941406 872.074219 341.671875 C 880.203125 339.09375 888.851562 337.691406 897.832031 337.691406 C 944.84375 337.691406 982.949219 375.855469 982.949219 422.929688 C 982.949219 422.988281 982.945312 423.039062 982.945312 423.097656 C 1020.222656 425.527344 1049.714844 456.554688 1049.714844 494.496094 C 1049.714844 534.023438 1017.714844 566.0625 978.242188 566.0625 C 977.148438 566.0625 976.0625 566.03125 974.980469 565.980469 L 974.972656 566.0625 L 974.421875 565.960938 C 973.929688 565.933594 973.445312 565.882812 972.957031 565.847656 L 569.136719 565.847656 C 566.363281 566.0625 563.566406 566.199219 560.734375 566.199219 C 500.246094 566.199219 451.214844 517.101562 451.214844 456.535156 C 451.214844 395.964844 500.246094 346.859375 560.734375 346.859375 Z M 560.734375 346.859375 " fill-opacity="1" fill-rule="nonzero"/></g><g clip-path="url(#id4)"><path fill="rgb(100%, 100%, 100%)" d="M 568.730469 392.136719 C 577.972656 392.136719 586.917969 393.390625 595.429688 395.691406 C 614.433594 340.433594 666.859375 300.703125 728.601562 300.703125 C 787.183594 300.703125 837.394531 336.457031 858.613281 387.316406 C 866.179688 384.917969 874.234375 383.617188 882.59375 383.617188 C 926.367188 383.617188 961.847656 419.078125 961.847656 462.824219 C 961.847656 462.878906 961.84375 462.925781 961.84375 462.980469 C 996.550781 465.234375 1024.007812 494.066406 1024.007812 529.324219 C 1024.007812 566.054688 994.214844 595.828125 957.464844 595.828125 C 956.445312 595.828125 955.433594 595.796875 954.425781 595.75 L 954.417969 595.828125 L 953.90625 595.730469 C 953.449219 595.707031 952.996094 595.660156 952.542969 595.628906 L 576.554688 595.628906 C 573.972656 595.824219 571.367188 595.953125 568.730469 595.953125 C 512.410156 595.953125 466.757812 550.332031 466.757812 494.046875 C 466.757812 437.769531 512.410156 392.136719 568.730469 392.136719 Z M 568.730469 392.136719 " fill-opacity="1" fill-rule="nonzero"/></g><g clip-path="url(#id5)"><path fill="rgb(6.269836%, 18.03894%, 44.309998%)" d="M 337.660156 453.976562 L 495.117188 453.976562 L 495.117188 465.8125 L 337.660156 465.8125 Z M 337.660156 453.976562 " fill-opacity="1" fill-rule="nonzero"/></g><path fill="rgb(6.269836%, 18.03894%, 44.309998%)" d="M 489.695312 457.511719 L 553.214844 313.554688 L 564.054688 318.332031 L 500.539062 462.285156 Z M 489.695312 457.511719 " fill-opacity="1" fill-rule="nonzero"/><path fill="rgb(6.269836%, 18.03894%, 44.309998%)" d="M 490.632812 465.519531 L 494.332031 454.273438 L 643.914062 503.410156 L 640.210938 514.65625 Z M 490.632812 465.519531 " fill-opacity="1" fill-rule="nonzero"/><path fill="rgb(6.269836%, 18.03894%, 44.309998%)" d="M 553.949219 322.207031 L 560.367188 312.253906 L 652.003906 371.238281 L 645.589844 381.191406 Z M 553.949219 322.207031 " fill-opacity="1" fill-rule="nonzero"/><path fill="rgb(6.269836%, 18.03894%, 44.309998%)" d="M 555.863281 311.441406 L 720.835938 274.992188 L 723.394531 286.546875 L 558.421875 323 Z M 555.863281 311.441406 " fill-opacity="1" fill-rule="nonzero"/><path fill="rgb(6.269836%, 18.03894%, 44.309998%)" d="M 636.15625 508.734375 L 642.890625 375.914062 L 654.722656 376.511719 L 647.988281 509.332031 Z M 636.15625 508.734375 " fill-opacity="1" fill-rule="nonzero"/><path fill="rgb(6.269836%, 18.03894%, 44.309998%)" d="M 641.851562 514.945312 L 642.292969 503.117188 L 801.914062 509.023438 L 801.476562 520.851562 Z M 641.851562 514.945312 " fill-opacity="1" fill-rule="nonzero"/><path fill="rgb(6.269836%, 18.03894%, 44.309998%)" d="M 640.527344 503.3125 L 1055.699219 392.011719 L 1058.769531 403.441406 L 643.597656 514.746094 Z M 640.527344 503.3125 " fill-opacity="1" fill-rule="nonzero"/><path fill="rgb(6.269836%, 18.03894%, 44.309998%)" d="M 877.328125 392.945312 L 1057.191406 391.847656 L 1057.261719 403.683594 L 877.398438 404.78125 Z M 877.328125 392.945312 " fill-opacity="1" fill-rule="nonzero"/><path fill="rgb(6.269836%, 18.03894%, 44.309998%)" d="M 946.933594 302.558594 L 955.03125 293.921875 L 1061.292969 393.414062 L 1053.191406 402.050781 Z M 946.933594 302.558594 " fill-opacity="1" fill-rule="nonzero"/><path fill="rgb(6.269836%, 18.03894%, 44.309998%)" d="M 489.191406 459.894531 L 501.039062 459.894531 L 501.039062 552.941406 L 489.191406 552.941406 Z M 489.191406 459.894531 " fill-opacity="1" fill-rule="nonzero"/><path fill="rgb(6.269836%, 18.03894%, 44.309998%)" d="M 822.433594 514.925781 C 822.433594 515.605469 822.398438 516.285156 822.332031 516.960938 C 822.265625 517.636719 822.167969 518.304688 822.035156 518.972656 C 821.902344 519.636719 821.738281 520.296875 821.539062 520.945312 C 821.34375 521.59375 821.113281 522.234375 820.855469 522.859375 C 820.59375 523.488281 820.304688 524.101562 819.984375 524.699219 C 819.664062 525.296875 819.3125 525.878906 818.9375 526.445312 C 818.558594 527.007812 818.15625 527.554688 817.722656 528.078125 C 817.292969 528.605469 816.835938 529.105469 816.355469 529.585938 C 815.875 530.066406 815.375 530.523438 814.847656 530.953125 C 814.324219 531.382812 813.777344 531.789062 813.210938 532.164062 C 812.648438 532.542969 812.066406 532.890625 811.464844 533.210938 C 810.867188 533.53125 810.253906 533.820312 809.625 534.082031 C 808.996094 534.339844 808.359375 534.570312 807.707031 534.765625 C 807.058594 534.960938 806.398438 535.128906 805.734375 535.261719 C 805.066406 535.390625 804.394531 535.492188 803.71875 535.558594 C 803.042969 535.625 802.363281 535.660156 801.683594 535.660156 C 801.003906 535.660156 800.328125 535.625 799.652344 535.558594 C 798.976562 535.492188 798.304688 535.390625 797.636719 535.261719 C 796.96875 535.128906 796.3125 534.960938 795.660156 534.765625 C 795.011719 534.570312 794.371094 534.339844 793.746094 534.082031 C 793.117188 533.820312 792.503906 533.53125 791.902344 533.210938 C 791.304688 532.890625 790.722656 532.542969 790.15625 532.164062 C 789.59375 531.789062 789.046875 531.382812 788.523438 530.953125 C 787.996094 530.523438 787.492188 530.066406 787.011719 529.585938 C 786.53125 529.105469 786.078125 528.605469 785.644531 528.078125 C 785.214844 527.554688 784.8125 527.007812 784.433594 526.445312 C 784.054688 525.878906 783.707031 525.296875 783.386719 524.699219 C 783.066406 524.101562 782.777344 523.488281 782.515625 522.859375 C 782.253906 522.234375 782.027344 521.59375 781.828125 520.945312 C 781.632812 520.296875 781.46875 519.636719 781.335938 518.972656 C 781.203125 518.304688 781.101562 517.636719 781.035156 516.960938 C 780.96875 516.285156 780.9375 515.605469 780.9375 514.925781 C 780.9375 514.25 780.96875 513.570312 781.035156 512.894531 C 781.101562 512.21875 781.203125 511.550781 781.335938 510.882812 C 781.46875 510.21875 781.632812 509.558594 781.828125 508.910156 C 782.027344 508.261719 782.253906 507.621094 782.515625 506.996094 C 782.777344 506.367188 783.066406 505.753906 783.386719 505.15625 C 783.707031 504.554688 784.054688 503.976562 784.433594 503.410156 C 784.8125 502.847656 785.214844 502.300781 785.644531 501.777344 C 786.078125 501.25 786.53125 500.75 787.011719 500.269531 C 787.492188 499.789062 787.996094 499.332031 788.523438 498.902344 C 789.046875 498.472656 789.59375 498.066406 790.15625 497.691406 C 790.722656 497.3125 791.304688 496.964844 791.902344 496.644531 C 792.503906 496.324219 793.117188 496.035156 793.746094 495.773438 C 794.371094 495.515625 795.011719 495.285156 795.660156 495.089844 C 796.3125 494.890625 796.96875 494.726562 797.636719 494.59375 C 798.304688 494.460938 798.976562 494.363281 799.652344 494.296875 C 800.328125 494.230469 801.003906 494.195312 801.683594 494.195312 C 802.363281 494.195312 803.042969 494.230469 803.71875 494.296875 C 804.394531 494.363281 805.066406 494.460938 805.734375 494.59375 C 806.398438 494.726562 807.058594 494.890625 807.707031 495.089844 C 808.359375 495.285156 808.996094 495.515625 809.625 495.773438 C 810.253906 496.035156 810.867188 496.324219 811.464844 496.644531 C 812.066406 496.964844 812.648438 497.3125 813.210938 497.691406 C 813.777344 498.066406 814.324219 498.472656 814.847656 498.902344 C 815.375 499.332031 815.875 499.789062 816.355469 500.269531 C 816.835938 500.75 817.292969 501.25 817.722656 501.777344 C 818.15625 502.300781 818.558594 502.847656 818.9375 503.410156 C 819.3125 503.976562 819.664062 504.554688 819.984375 505.15625 C 820.304688 505.753906 820.59375 506.367188 820.855469 506.996094 C 821.113281 507.621094 821.34375 508.261719 821.539062 508.910156 C 821.738281 509.558594 821.902344 510.21875 822.035156 510.882812 C 822.167969 511.550781 822.265625 512.21875 822.332031 512.894531 C 822.398438 513.570312 822.433594 514.25 822.433594 514.925781 Z M 822.433594 514.925781 " fill-opacity="1" fill-rule="nonzero"/><g clip-path="url(#id6)"><path fill="rgb(6.269836%, 18.03894%, 44.309998%)" d="M 1077.140625 396.9375 C 1077.140625 397.617188 1077.109375 398.292969 1077.042969 398.96875 C 1076.976562 399.644531 1076.875 400.316406 1076.742188 400.980469 C 1076.609375 401.648438 1076.445312 402.304688 1076.25 402.953125 C 1076.050781 403.605469 1075.824219 404.242188 1075.5625 404.871094 C 1075.304688 405.496094 1075.011719 406.109375 1074.691406 406.710938 C 1074.371094 407.308594 1074.023438 407.890625 1073.644531 408.453125 C 1073.269531 409.019531 1072.863281 409.5625 1072.433594 410.089844 C 1072 410.613281 1071.546875 411.117188 1071.066406 411.59375 C 1070.585938 412.074219 1070.082031 412.53125 1069.554688 412.960938 C 1069.03125 413.390625 1068.484375 413.796875 1067.921875 414.171875 C 1067.355469 414.550781 1066.773438 414.898438 1066.175781 415.21875 C 1065.574219 415.539062 1064.960938 415.828125 1064.332031 416.089844 C 1063.707031 416.347656 1063.066406 416.578125 1062.417969 416.773438 C 1061.765625 416.972656 1061.109375 417.136719 1060.441406 417.269531 C 1059.773438 417.402344 1059.105469 417.5 1058.425781 417.566406 C 1057.75 417.632812 1057.074219 417.667969 1056.394531 417.667969 C 1055.714844 417.667969 1055.035156 417.632812 1054.359375 417.566406 C 1053.683594 417.5 1053.011719 417.402344 1052.347656 417.269531 C 1051.679688 417.136719 1051.019531 416.972656 1050.371094 416.773438 C 1049.71875 416.578125 1049.082031 416.347656 1048.453125 416.089844 C 1047.824219 415.828125 1047.210938 415.539062 1046.613281 415.21875 C 1046.011719 414.898438 1045.429688 414.550781 1044.867188 414.171875 C 1044.300781 413.796875 1043.757812 413.390625 1043.230469 412.960938 C 1042.707031 412.53125 1042.203125 412.074219 1041.722656 411.59375 C 1041.242188 411.117188 1040.785156 410.613281 1040.355469 410.089844 C 1039.921875 409.5625 1039.519531 409.019531 1039.140625 408.453125 C 1038.765625 407.890625 1038.414062 407.308594 1038.09375 406.710938 C 1037.773438 406.109375 1037.484375 405.496094 1037.222656 404.871094 C 1036.964844 404.242188 1036.734375 403.605469 1036.539062 402.953125 C 1036.339844 402.304688 1036.175781 401.648438 1036.042969 400.980469 C 1035.910156 400.316406 1035.8125 399.644531 1035.746094 398.96875 C 1035.679688 398.292969 1035.644531 397.617188 1035.644531 396.9375 C 1035.644531 396.257812 1035.679688 395.582031 1035.746094 394.90625 C 1035.8125 394.230469 1035.910156 393.558594 1036.042969 392.890625 C 1036.175781 392.226562 1036.339844 391.570312 1036.539062 390.917969 C 1036.734375 390.269531 1036.964844 389.628906 1037.222656 389.003906 C 1037.484375 388.375 1037.773438 387.761719 1038.09375 387.164062 C 1038.414062 386.566406 1038.765625 385.984375 1039.140625 385.417969 C 1039.519531 384.855469 1039.921875 384.308594 1040.355469 383.785156 C 1040.785156 383.261719 1041.242188 382.757812 1041.722656 382.277344 C 1042.203125 381.796875 1042.707031 381.34375 1043.230469 380.910156 C 1043.757812 380.480469 1044.300781 380.078125 1044.867188 379.699219 C 1045.429688 379.324219 1046.011719 378.972656 1046.613281 378.652344 C 1047.210938 378.332031 1047.824219 378.042969 1048.453125 377.785156 C 1049.082031 377.523438 1049.71875 377.296875 1050.371094 377.097656 C 1051.019531 376.902344 1051.679688 376.738281 1052.347656 376.605469 C 1053.011719 376.472656 1053.683594 376.371094 1054.359375 376.304688 C 1055.035156 376.238281 1055.714844 376.207031 1056.394531 376.207031 C 1057.074219 376.207031 1057.75 376.238281 1058.425781 376.304688 C 1059.105469 376.371094 1059.773438 376.472656 1060.441406 376.605469 C 1061.109375 376.738281 1061.765625 376.902344 1062.417969 377.097656 C 1063.066406 377.296875 1063.707031 377.523438 1064.332031 377.785156 C 1064.960938 378.042969 1065.574219 378.332031 1066.175781 378.652344 C 1066.773438 378.972656 1067.355469 379.324219 1067.921875 379.699219 C 1068.484375 380.078125 1069.03125 380.480469 1069.554688 380.910156 C 1070.082031 381.34375 1070.585938 381.796875 1071.066406 382.277344 C 1071.546875 382.757812 1072 383.261719 1072.433594 383.785156 C 1072.863281 384.308594 1073.269531 384.855469 1073.644531 385.417969 C 1074.023438 385.984375 1074.371094 386.566406 1074.691406 387.164062 C 1075.011719 387.761719 1075.304688 388.375 1075.5625 389.003906 C 1075.824219 389.628906 1076.050781 390.269531 1076.25 390.917969 C 1076.445312 391.570312 1076.609375 392.226562 1076.742188 392.890625 C 1076.875 393.558594 1076.976562 394.230469 1077.042969 394.90625 C 1077.109375 395.582031 1077.140625 396.257812 1077.140625 396.9375 Z M 1077.140625 396.9375 " fill-opacity="1" fill-rule="nonzero"/></g><path fill="rgb(6.269836%, 18.03894%, 44.309998%)" d="M 742.871094 279.984375 C 742.871094 280.664062 742.835938 281.339844 742.769531 282.015625 C 742.703125 282.691406 742.605469 283.363281 742.472656 284.027344 C 742.339844 284.695312 742.175781 285.351562 741.976562 286.003906 C 741.78125 286.652344 741.550781 287.289062 741.289062 287.917969 C 741.03125 288.546875 740.742188 289.15625 740.421875 289.757812 C 740.101562 290.355469 739.75 290.9375 739.375 291.5 C 738.996094 292.066406 738.589844 292.609375 738.160156 293.136719 C 737.730469 293.660156 737.273438 294.164062 736.792969 294.644531 C 736.3125 295.125 735.808594 295.578125 735.285156 296.007812 C 734.757812 296.441406 734.214844 296.84375 733.648438 297.222656 C 733.082031 297.597656 732.5 297.949219 731.902344 298.265625 C 731.304688 298.585938 730.691406 298.878906 730.0625 299.136719 C 729.433594 299.398438 728.796875 299.625 728.144531 299.824219 C 727.496094 300.019531 726.835938 300.183594 726.167969 300.316406 C 725.503906 300.449219 724.832031 300.546875 724.15625 300.617188 C 723.480469 300.683594 722.800781 300.714844 722.121094 300.714844 C 721.441406 300.714844 720.765625 300.683594 720.089844 300.617188 C 719.410156 300.546875 718.742188 300.449219 718.074219 300.316406 C 717.40625 300.183594 716.75 300.019531 716.097656 299.824219 C 715.449219 299.625 714.808594 299.398438 714.179688 299.136719 C 713.554688 298.878906 712.941406 298.585938 712.339844 298.265625 C 711.742188 297.949219 711.160156 297.597656 710.59375 297.222656 C 710.03125 296.84375 709.484375 296.441406 708.957031 296.007812 C 708.433594 295.578125 707.929688 295.125 707.449219 294.644531 C 706.96875 294.164062 706.515625 293.660156 706.082031 293.136719 C 705.652344 292.609375 705.246094 292.066406 704.871094 291.5 C 704.492188 290.9375 704.144531 290.355469 703.824219 289.757812 C 703.503906 289.15625 703.210938 288.546875 702.953125 287.917969 C 702.691406 287.289062 702.464844 286.652344 702.265625 286.003906 C 702.070312 285.351562 701.902344 284.695312 701.773438 284.027344 C 701.640625 283.363281 701.539062 282.691406 701.472656 282.015625 C 701.40625 281.339844 701.375 280.664062 701.375 279.984375 C 701.375 279.304688 701.40625 278.628906 701.472656 277.953125 C 701.539062 277.277344 701.640625 276.605469 701.773438 275.941406 C 701.902344 275.273438 702.070312 274.617188 702.265625 273.964844 C 702.464844 273.316406 702.691406 272.679688 702.953125 272.050781 C 703.210938 271.425781 703.503906 270.8125 703.824219 270.210938 C 704.144531 269.613281 704.492188 269.03125 704.871094 268.46875 C 705.246094 267.902344 705.652344 267.359375 706.082031 266.832031 C 706.515625 266.308594 706.96875 265.804688 707.449219 265.324219 C 707.929688 264.84375 708.433594 264.390625 708.957031 263.960938 C 709.484375 263.527344 710.03125 263.125 710.59375 262.746094 C 711.160156 262.371094 711.742188 262.023438 712.339844 261.703125 C 712.941406 261.382812 713.554688 261.089844 714.179688 260.832031 C 714.808594 260.570312 715.449219 260.34375 716.097656 260.148438 C 716.75 259.949219 717.40625 259.785156 718.074219 259.652344 C 718.742188 259.519531 719.410156 259.421875 720.089844 259.355469 C 720.765625 259.289062 721.441406 259.253906 722.121094 259.253906 C 722.800781 259.253906 723.480469 259.289062 724.15625 259.355469 C 724.832031 259.421875 725.503906 259.519531 726.167969 259.652344 C 726.835938 259.785156 727.496094 259.949219 728.144531 260.148438 C 728.796875 260.34375 729.433594 260.570312 730.0625 260.832031 C 730.691406 261.089844 731.304688 261.382812 731.902344 261.703125 C 732.5 262.023438 733.082031 262.371094 733.648438 262.746094 C 734.214844 263.125 734.757812 263.527344 735.285156 263.960938 C 735.808594 264.390625 736.3125 264.84375 736.792969 265.324219 C 737.273438 265.804688 737.730469 266.308594 738.160156 266.832031 C 738.589844 267.359375 738.996094 267.902344 739.375 268.46875 C 739.75 269.03125 740.101562 269.613281 740.421875 270.210938 C 740.742188 270.8125 741.03125 271.425781 741.289062 272.050781 C 741.550781 272.679688 741.78125 273.316406 741.976562 273.964844 C 742.175781 274.617188 742.339844 275.273438 742.472656 275.941406 C 742.605469 276.605469 742.703125 277.277344 742.769531 277.953125 C 742.835938 278.628906 742.871094 279.304688 742.871094 279.984375 Z M 742.871094 279.984375 " fill-opacity="1" fill-rule="nonzero"/><path fill="rgb(6.269836%, 18.03894%, 44.309998%)" d="M 515.863281 460.761719 C 515.863281 461.4375 515.828125 462.117188 515.761719 462.792969 C 515.695312 463.46875 515.597656 464.140625 515.464844 464.804688 C 515.332031 465.46875 515.167969 466.128906 514.96875 466.777344 C 514.773438 467.429688 514.542969 468.066406 514.28125 468.695312 C 514.023438 469.320312 513.734375 469.933594 513.414062 470.53125 C 513.09375 471.132812 512.742188 471.714844 512.367188 472.277344 C 511.988281 472.84375 511.582031 473.386719 511.152344 473.910156 C 510.722656 474.4375 510.265625 474.9375 509.785156 475.417969 C 509.304688 475.898438 508.800781 476.355469 508.277344 476.785156 C 507.75 477.214844 507.207031 477.621094 506.640625 477.996094 C 506.074219 478.375 505.492188 478.722656 504.894531 479.042969 C 504.296875 479.363281 503.679688 479.652344 503.054688 479.914062 C 502.425781 480.171875 501.785156 480.402344 501.136719 480.597656 C 500.484375 480.796875 499.828125 480.960938 499.160156 481.09375 C 498.496094 481.226562 497.824219 481.324219 497.148438 481.390625 C 496.472656 481.457031 495.792969 481.492188 495.113281 481.492188 C 494.433594 481.492188 493.757812 481.457031 493.078125 481.390625 C 492.402344 481.324219 491.730469 481.226562 491.066406 481.09375 C 490.398438 480.960938 489.742188 480.796875 489.089844 480.597656 C 488.441406 480.402344 487.800781 480.171875 487.171875 479.914062 C 486.546875 479.652344 485.933594 479.363281 485.332031 479.042969 C 484.734375 478.722656 484.152344 478.375 483.585938 477.996094 C 483.019531 477.621094 482.476562 477.214844 481.949219 476.785156 C 481.425781 476.355469 480.921875 475.898438 480.441406 475.417969 C 479.960938 474.9375 479.503906 474.4375 479.074219 473.910156 C 478.644531 473.386719 478.238281 472.84375 477.863281 472.277344 C 477.484375 471.714844 477.136719 471.132812 476.816406 470.53125 C 476.496094 469.933594 476.203125 469.320312 475.945312 468.695312 C 475.683594 468.066406 475.457031 467.429688 475.257812 466.777344 C 475.0625 466.128906 474.894531 465.46875 474.761719 464.804688 C 474.632812 464.140625 474.53125 463.46875 474.464844 462.792969 C 474.398438 462.117188 474.363281 461.4375 474.363281 460.761719 C 474.363281 460.082031 474.398438 459.402344 474.464844 458.726562 C 474.53125 458.054688 474.632812 457.382812 474.761719 456.714844 C 474.894531 456.050781 475.0625 455.390625 475.257812 454.742188 C 475.457031 454.09375 475.683594 453.453125 475.945312 452.828125 C 476.203125 452.199219 476.496094 451.585938 476.816406 450.988281 C 477.136719 450.390625 477.484375 449.808594 477.863281 449.242188 C 478.238281 448.679688 478.644531 448.132812 479.074219 447.609375 C 479.503906 447.085938 479.960938 446.582031 480.441406 446.101562 C 480.921875 445.621094 481.425781 445.167969 481.949219 444.734375 C 482.476562 444.304688 483.019531 443.902344 483.585938 443.523438 C 484.152344 443.144531 484.734375 442.796875 485.332031 442.476562 C 485.933594 442.15625 486.546875 441.867188 487.171875 441.609375 C 487.800781 441.347656 488.441406 441.121094 489.089844 440.921875 C 489.742188 440.726562 490.398438 440.558594 491.066406 440.429688 C 491.730469 440.296875 492.402344 440.195312 493.078125 440.128906 C 493.757812 440.0625 494.433594 440.03125 495.113281 440.03125 C 495.792969 440.03125 496.472656 440.0625 497.148438 440.128906 C 497.824219 440.195312 498.496094 440.296875 499.160156 440.429688 C 499.828125 440.558594 500.484375 440.726562 501.136719 440.921875 C 501.785156 441.121094 502.425781 441.347656 503.054688 441.609375 C 503.679688 441.867188 504.296875 442.15625 504.894531 442.476562 C 505.492188 442.796875 506.074219 443.144531 506.640625 443.523438 C 507.207031 443.902344 507.75 444.304688 508.277344 444.734375 C 508.800781 445.167969 509.304688 445.621094 509.785156 446.101562 C 510.265625 446.582031 510.722656 447.085938 511.152344 447.609375 C 511.582031 448.132812 511.988281 448.679688 512.367188 449.242188 C 512.742188 449.808594 513.09375 450.390625 513.414062 450.988281 C 513.734375 451.585938 514.023438 452.199219 514.28125 452.828125 C 514.542969 453.453125 514.773438 454.09375 514.96875 454.742188 C 515.167969 455.390625 515.332031 456.050781 515.464844 456.714844 C 515.597656 457.382812 515.695312 458.054688 515.761719 458.726562 C 515.828125 459.402344 515.863281 460.082031 515.863281 460.761719 Z M 515.863281 460.761719 " fill-opacity="1" fill-rule="nonzero"/><path fill="rgb(6.269836%, 18.03894%, 44.309998%)" d="M 669.535156 376.207031 C 669.535156 376.886719 669.503906 377.5625 669.4375 378.238281 C 669.371094 378.914062 669.269531 379.585938 669.136719 380.25 C 669.003906 380.917969 668.839844 381.574219 668.644531 382.222656 C 668.445312 382.875 668.21875 383.511719 667.957031 384.140625 C 667.695312 384.765625 667.40625 385.378906 667.085938 385.976562 C 666.765625 386.578125 666.417969 387.160156 666.039062 387.722656 C 665.660156 388.289062 665.257812 388.832031 664.828125 389.355469 C 664.394531 389.882812 663.941406 390.382812 663.460938 390.863281 C 662.976562 391.34375 662.476562 391.800781 661.949219 392.230469 C 661.425781 392.660156 660.878906 393.066406 660.316406 393.441406 C 659.75 393.820312 659.167969 394.167969 658.566406 394.488281 C 657.96875 394.808594 657.355469 395.097656 656.726562 395.359375 C 656.101562 395.617188 655.460938 395.847656 654.808594 396.042969 C 654.160156 396.242188 653.5 396.40625 652.835938 396.539062 C 652.167969 396.671875 651.496094 396.769531 650.820312 396.835938 C 650.144531 396.902344 649.46875 396.9375 648.789062 396.9375 C 648.109375 396.9375 647.429688 396.902344 646.753906 396.835938 C 646.078125 396.769531 645.40625 396.671875 644.738281 396.539062 C 644.074219 396.40625 643.414062 396.242188 642.765625 396.042969 C 642.113281 395.847656 641.476562 395.617188 640.847656 395.359375 C 640.21875 395.097656 639.605469 394.808594 639.007812 394.488281 C 638.40625 394.167969 637.824219 393.820312 637.261719 393.441406 C 636.695312 393.066406 636.148438 392.660156 635.625 392.230469 C 635.097656 391.800781 634.597656 391.34375 634.117188 390.863281 C 633.636719 390.382812 633.179688 389.882812 632.75 389.355469 C 632.316406 388.832031 631.914062 388.289062 631.535156 387.722656 C 631.15625 387.160156 630.808594 386.578125 630.488281 385.976562 C 630.167969 385.378906 629.878906 384.765625 629.617188 384.140625 C 629.359375 383.511719 629.128906 382.875 628.933594 382.222656 C 628.734375 381.574219 628.570312 380.917969 628.4375 380.25 C 628.304688 379.585938 628.207031 378.914062 628.140625 378.238281 C 628.070312 377.5625 628.039062 376.886719 628.039062 376.207031 C 628.039062 375.527344 628.070312 374.851562 628.140625 374.175781 C 628.207031 373.5 628.304688 372.828125 628.4375 372.160156 C 628.570312 371.496094 628.734375 370.839844 628.933594 370.1875 C 629.128906 369.539062 629.359375 368.898438 629.617188 368.273438 C 629.878906 367.644531 630.167969 367.03125 630.488281 366.433594 C 630.808594 365.835938 631.15625 365.253906 631.535156 364.6875 C 631.914062 364.125 632.316406 363.578125 632.75 363.054688 C 633.179688 362.53125 633.636719 362.027344 634.117188 361.546875 C 634.597656 361.066406 635.097656 360.613281 635.625 360.179688 C 636.148438 359.75 636.695312 359.347656 637.261719 358.96875 C 637.824219 358.59375 638.40625 358.242188 639.007812 357.921875 C 639.605469 357.601562 640.21875 357.3125 640.847656 357.054688 C 641.476562 356.792969 642.113281 356.566406 642.765625 356.367188 C 643.414062 356.171875 644.074219 356.007812 644.738281 355.875 C 645.40625 355.742188 646.078125 355.640625 646.753906 355.574219 C 647.429688 355.507812 648.109375 355.476562 648.789062 355.476562 C 649.46875 355.476562 650.144531 355.507812 650.820312 355.574219 C 651.496094 355.640625 652.167969 355.742188 652.835938 355.875 C 653.5 356.007812 654.160156 356.171875 654.808594 356.367188 C 655.460938 356.566406 656.101562 356.792969 656.726562 357.054688 C 657.355469 357.3125 657.96875 357.601562 658.566406 357.921875 C 659.167969 358.242188 659.75 358.59375 660.316406 358.96875 C 660.878906 359.347656 661.425781 359.75 661.949219 360.179688 C 662.476562 360.613281 662.976562 361.066406 663.460938 361.546875 C 663.941406 362.027344 664.394531 362.53125 664.828125 363.054688 C 665.257812 363.578125 665.660156 364.125 666.039062 364.6875 C 666.417969 365.253906 666.765625 365.835938 667.085938 366.433594 C 667.40625 367.03125 667.695312 367.644531 667.957031 368.273438 C 668.21875 368.898438 668.445312 369.539062 668.644531 370.1875 C 668.839844 370.839844 669.003906 371.496094 669.136719 372.160156 C 669.269531 372.828125 669.371094 373.5 669.4375 374.175781 C 669.503906 374.851562 669.535156 375.527344 669.535156 376.207031 Z M 669.535156 376.207031 " fill-opacity="1" fill-rule="nonzero"/><path fill="rgb(6.269836%, 18.03894%, 44.309998%)" d="M 645.433594 485.769531 C 646.214844 485.769531 646.996094 485.816406 647.777344 485.90625 C 648.554688 485.992188 649.324219 486.125 650.089844 486.300781 C 650.851562 486.476562 651.605469 486.695312 652.34375 486.957031 C 653.082031 487.21875 653.804688 487.519531 654.507812 487.863281 C 655.210938 488.207031 655.894531 488.585938 656.558594 489.007812 C 657.21875 489.425781 657.855469 489.882812 658.464844 490.375 C 659.074219 490.867188 659.652344 491.390625 660.203125 491.949219 C 660.753906 492.507812 661.269531 493.09375 661.753906 493.710938 C 662.238281 494.328125 662.683594 494.96875 663.09375 495.636719 C 663.503906 496.300781 663.878906 496.988281 664.210938 497.699219 C 664.542969 498.40625 664.835938 499.132812 665.085938 499.875 C 665.335938 500.617188 665.542969 501.371094 665.707031 502.136719 C 665.875 502.902344 665.996094 503.671875 666.074219 504.453125 C 666.148438 505.230469 666.183594 506.011719 666.171875 506.796875 C 666.160156 507.578125 666.105469 508.359375 666.007812 509.136719 C 665.90625 509.910156 665.761719 510.679688 665.578125 511.441406 C 665.390625 512.203125 665.160156 512.949219 664.890625 513.683594 C 664.617188 514.417969 664.304688 515.136719 663.953125 515.835938 C 663.601562 516.535156 663.207031 517.210938 662.777344 517.863281 C 662.347656 518.519531 661.882812 519.148438 661.382812 519.75 C 660.882812 520.351562 660.347656 520.925781 659.785156 521.46875 C 659.21875 522.007812 658.625 522.515625 658 522.992188 C 657.375 523.464844 656.726562 523.902344 656.054688 524.304688 C 655.382812 524.707031 654.6875 525.066406 653.972656 525.390625 C 653.261719 525.714844 652.53125 525.996094 651.785156 526.234375 C 651.039062 526.472656 650.28125 526.671875 649.511719 526.824219 C 648.746094 526.980469 647.96875 527.089844 647.1875 527.15625 C 646.410156 527.222656 645.625 527.246094 644.84375 527.222656 C 644.058594 527.203125 643.28125 527.136719 642.503906 527.027344 C 641.726562 526.914062 640.960938 526.761719 640.203125 526.566406 C 639.445312 526.367188 638.699219 526.128906 637.96875 525.847656 C 637.238281 525.566406 636.523438 525.242188 635.828125 524.882812 C 635.132812 524.519531 634.460938 524.121094 633.8125 523.679688 C 633.164062 523.242188 632.539062 522.769531 631.945312 522.261719 C 631.347656 521.75 630.785156 521.210938 630.25 520.636719 C 629.714844 520.066406 629.214844 519.464844 628.75 518.835938 C 628.28125 518.207031 627.851562 517.550781 627.460938 516.875 C 627.070312 516.195312 626.714844 515.5 626.402344 514.78125 C 626.089844 514.0625 625.820312 513.328125 625.589844 512.582031 C 625.359375 511.832031 625.171875 511.074219 625.027344 510.304688 C 624.886719 509.535156 624.785156 508.757812 624.730469 507.976562 C 624.671875 507.195312 624.660156 506.414062 624.695312 505.632812 C 624.726562 504.851562 624.804688 504.070312 624.925781 503.296875 C 625.046875 502.523438 625.210938 501.761719 625.417969 501.003906 C 625.628906 500.25 625.875 499.507812 626.167969 498.78125 C 626.460938 498.054688 626.792969 497.347656 627.164062 496.660156 C 627.535156 495.96875 627.945312 495.304688 628.394531 494.660156 C 628.839844 494.019531 629.324219 493.402344 629.839844 492.816406 C 630.8125 491.707031 631.894531 490.714844 633.078125 489.835938 C 634.265625 488.957031 635.53125 488.214844 636.875 487.605469 C 638.21875 487 639.613281 486.542969 641.054688 486.230469 C 642.496094 485.921875 643.957031 485.769531 645.433594 485.769531 M 645.433594 480.421875 C 644.421875 480.421875 643.417969 480.480469 642.414062 480.59375 C 641.410156 480.710938 640.417969 480.886719 639.4375 481.117188 C 638.453125 481.347656 637.488281 481.632812 636.539062 481.976562 C 635.589844 482.320312 634.664062 482.71875 633.761719 483.167969 C 632.855469 483.621094 631.984375 484.121094 631.136719 484.671875 C 630.292969 485.222656 629.484375 485.824219 628.707031 486.46875 C 627.933594 487.113281 627.199219 487.804688 626.5 488.535156 C 625.804688 489.265625 625.15625 490.035156 624.550781 490.839844 C 623.945312 491.648438 623.386719 492.484375 622.878906 493.355469 C 622.367188 494.226562 621.910156 495.125 621.507812 496.050781 C 621.101562 496.972656 620.753906 497.917969 620.457031 498.882812 C 620.164062 499.847656 619.925781 500.824219 619.742188 501.816406 C 619.5625 502.808594 619.4375 503.808594 619.375 504.816406 C 619.308594 505.820312 619.300781 506.828125 619.351562 507.835938 C 619.40625 508.84375 619.515625 509.84375 619.683594 510.835938 C 619.851562 511.832031 620.074219 512.8125 620.355469 513.78125 C 620.640625 514.75 620.976562 515.699219 621.367188 516.628906 C 621.757812 517.558594 622.203125 518.460938 622.699219 519.339844 C 623.199219 520.21875 623.742188 521.0625 624.339844 521.878906 C 624.933594 522.691406 625.574219 523.46875 626.257812 524.210938 C 626.945312 524.953125 627.671875 525.648438 628.4375 526.304688 C 629.203125 526.960938 630.007812 527.570312 630.84375 528.136719 C 631.679688 528.699219 632.546875 529.210938 633.445312 529.675781 C 634.339844 530.136719 635.261719 530.546875 636.207031 530.902344 C 637.152344 531.257812 638.113281 531.558594 639.09375 531.804688 C 640.070312 532.046875 641.0625 532.234375 642.0625 532.363281 C 643.0625 532.496094 644.070312 532.566406 645.078125 532.578125 C 646.085938 532.59375 647.09375 532.546875 648.097656 532.445312 C 649.101562 532.339844 650.097656 532.179688 651.082031 531.960938 C 652.066406 531.742188 653.035156 531.46875 653.992188 531.136719 C 654.945312 530.804688 655.875 530.421875 656.785156 529.980469 C 657.691406 529.542969 658.574219 529.054688 659.425781 528.511719 C 660.277344 527.972656 661.09375 527.382812 661.878906 526.746094 C 662.660156 526.109375 663.40625 525.433594 664.109375 524.710938 C 664.816406 523.988281 665.476562 523.226562 666.09375 522.429688 C 666.707031 521.628906 667.277344 520.800781 667.796875 519.933594 C 668.316406 519.070312 668.785156 518.179688 669.203125 517.257812 C 669.617188 516.339844 669.980469 515.402344 670.285156 514.441406 C 670.59375 513.480469 670.84375 512.503906 671.039062 511.515625 C 671.234375 510.523438 671.367188 509.527344 671.445312 508.523438 C 671.523438 507.515625 671.546875 506.511719 671.507812 505.503906 C 671.46875 504.496094 671.371094 503.492188 671.214844 502.496094 C 671.0625 501.5 670.847656 500.515625 670.578125 499.542969 C 670.308594 498.570312 669.984375 497.617188 669.605469 496.683594 C 669.226562 495.75 668.792969 494.839844 668.308594 493.957031 C 667.820312 493.070312 667.285156 492.21875 666.703125 491.394531 C 666.117188 490.574219 665.488281 489.789062 664.8125 489.039062 C 664.136719 488.289062 663.417969 487.582031 662.660156 486.917969 C 660.277344 484.824219 657.605469 483.222656 654.636719 482.101562 C 651.671875 480.984375 648.601562 480.421875 645.433594 480.421875 Z M 645.433594 480.421875 " fill-opacity="1" fill-rule="nonzero"/><path fill="rgb(6.269836%, 18.03894%, 44.309998%)" d="M 660.402344 506.582031 C 660.402344 507.566406 660.304688 508.539062 660.113281 509.5 C 659.921875 510.464844 659.636719 511.402344 659.261719 512.308594 C 658.886719 513.21875 658.425781 514.078125 657.878906 514.898438 C 657.332031 515.714844 656.710938 516.46875 656.015625 517.164062 C 655.320312 517.859375 654.5625 518.480469 653.746094 519.027344 C 652.925781 519.570312 652.0625 520.03125 651.15625 520.410156 C 650.246094 520.785156 649.308594 521.070312 648.34375 521.261719 C 647.378906 521.453125 646.40625 521.546875 645.421875 521.546875 C 644.441406 521.546875 643.464844 521.453125 642.5 521.261719 C 641.535156 521.070312 640.597656 520.785156 639.691406 520.410156 C 638.78125 520.03125 637.917969 519.570312 637.101562 519.027344 C 636.285156 518.480469 635.527344 517.859375 634.832031 517.164062 C 634.136719 516.46875 633.515625 515.714844 632.96875 514.898438 C 632.421875 514.078125 631.960938 513.21875 631.585938 512.308594 C 631.207031 511.402344 630.921875 510.464844 630.730469 509.5 C 630.539062 508.539062 630.445312 507.566406 630.445312 506.582031 C 630.445312 505.597656 630.539062 504.625 630.730469 503.660156 C 630.921875 502.699219 631.207031 501.761719 631.585938 500.855469 C 631.960938 499.945312 632.421875 499.085938 632.96875 498.265625 C 633.515625 497.449219 634.136719 496.695312 634.832031 496 C 635.527344 495.304688 636.285156 494.683594 637.101562 494.136719 C 637.917969 493.59375 638.78125 493.132812 639.691406 492.753906 C 640.597656 492.378906 641.535156 492.09375 642.5 491.902344 C 643.464844 491.710938 644.441406 491.617188 645.421875 491.617188 C 646.40625 491.617188 647.378906 491.710938 648.34375 491.902344 C 649.308594 492.09375 650.246094 492.378906 651.15625 492.753906 C 652.0625 493.132812 652.925781 493.59375 653.746094 494.136719 C 654.5625 494.683594 655.320312 495.304688 656.015625 496 C 656.710938 496.695312 657.332031 497.449219 657.878906 498.265625 C 658.425781 499.085938 658.886719 499.945312 659.261719 500.855469 C 659.636719 501.761719 659.921875 502.699219 660.113281 503.660156 C 660.304688 504.625 660.402344 505.597656 660.402344 506.582031 Z M 660.402344 506.582031 " fill-opacity="1" fill-rule="nonzero"/><path fill="rgb(6.269836%, 18.03894%, 44.309998%)" d="M 495.121094 532.207031 C 495.90625 532.207031 496.6875 532.253906 497.464844 532.339844 C 498.246094 532.429688 499.015625 532.5625 499.78125 532.738281 C 500.542969 532.914062 501.292969 533.132812 502.03125 533.394531 C 502.773438 533.65625 503.492188 533.957031 504.199219 534.300781 C 504.902344 534.640625 505.585938 535.023438 506.246094 535.445312 C 506.910156 535.863281 507.542969 536.320312 508.152344 536.8125 C 508.761719 537.304688 509.34375 537.828125 509.894531 538.386719 C 510.445312 538.945312 510.960938 539.53125 511.445312 540.148438 C 511.925781 540.761719 512.375 541.40625 512.785156 542.070312 C 513.195312 542.738281 513.566406 543.425781 513.902344 544.136719 C 514.234375 544.84375 514.523438 545.570312 514.777344 546.3125 C 515.027344 547.054688 515.234375 547.808594 515.398438 548.574219 C 515.5625 549.339844 515.683594 550.109375 515.761719 550.890625 C 515.839844 551.667969 515.875 552.449219 515.863281 553.234375 C 515.851562 554.015625 515.796875 554.796875 515.695312 555.570312 C 515.597656 556.347656 515.453125 557.117188 515.265625 557.878906 C 515.082031 558.636719 514.851562 559.386719 514.578125 560.121094 C 514.308594 560.855469 513.996094 561.570312 513.644531 562.269531 C 513.289062 562.96875 512.898438 563.648438 512.46875 564.300781 C 512.039062 564.957031 511.574219 565.585938 511.074219 566.1875 C 510.574219 566.789062 510.039062 567.363281 509.472656 567.902344 C 508.90625 568.445312 508.3125 568.953125 507.691406 569.429688 C 507.066406 569.902344 506.417969 570.339844 505.746094 570.742188 C 505.074219 571.144531 504.378906 571.503906 503.664062 571.828125 C 502.949219 572.148438 502.222656 572.429688 501.476562 572.671875 C 500.730469 572.910156 499.972656 573.109375 499.203125 573.261719 C 498.433594 573.417969 497.660156 573.527344 496.878906 573.59375 C 496.097656 573.660156 495.316406 573.683594 494.535156 573.660156 C 493.75 573.640625 492.96875 573.574219 492.195312 573.460938 C 491.417969 573.351562 490.652344 573.199219 489.894531 573 C 489.132812 572.804688 488.390625 572.566406 487.660156 572.285156 C 486.925781 572.003906 486.214844 571.679688 485.519531 571.316406 C 484.824219 570.957031 484.152344 570.554688 483.503906 570.117188 C 482.851562 569.679688 482.230469 569.207031 481.636719 568.695312 C 481.039062 568.1875 480.472656 567.648438 479.941406 567.074219 C 479.40625 566.503906 478.90625 565.902344 478.4375 565.273438 C 477.972656 564.640625 477.542969 563.988281 477.152344 563.3125 C 476.757812 562.632812 476.40625 561.933594 476.09375 561.21875 C 475.78125 560.5 475.507812 559.765625 475.277344 559.015625 C 475.050781 558.269531 474.863281 557.507812 474.71875 556.738281 C 474.574219 555.96875 474.476562 555.195312 474.417969 554.414062 C 474.363281 553.632812 474.351562 552.851562 474.386719 552.070312 C 474.417969 551.285156 474.496094 550.507812 474.617188 549.734375 C 474.738281 548.960938 474.902344 548.195312 475.109375 547.441406 C 475.316406 546.6875 475.566406 545.945312 475.859375 545.21875 C 476.152344 544.492188 476.484375 543.785156 476.855469 543.09375 C 477.226562 542.40625 477.636719 541.742188 478.085938 541.097656 C 478.53125 540.457031 479.015625 539.839844 479.53125 539.25 C 480.503906 538.144531 481.582031 537.148438 482.769531 536.273438 C 483.953125 535.394531 485.21875 534.652344 486.5625 534.042969 C 487.910156 533.4375 489.300781 532.976562 490.746094 532.667969 C 492.1875 532.359375 493.648438 532.207031 495.121094 532.207031 M 495.121094 526.859375 C 494.113281 526.855469 493.105469 526.914062 492.105469 527.03125 C 491.101562 527.148438 490.109375 527.320312 489.125 527.550781 C 488.144531 527.785156 487.175781 528.070312 486.226562 528.414062 C 485.277344 528.757812 484.351562 529.15625 483.449219 529.605469 C 482.546875 530.054688 481.671875 530.558594 480.824219 531.109375 C 479.980469 531.660156 479.171875 532.261719 478.394531 532.90625 C 477.621094 533.550781 476.882812 534.238281 476.1875 534.972656 C 475.492188 535.703125 474.84375 536.472656 474.234375 537.277344 C 473.628906 538.085938 473.070312 538.921875 472.5625 539.792969 C 472.054688 540.664062 471.597656 541.5625 471.191406 542.488281 C 470.789062 543.410156 470.4375 544.355469 470.144531 545.320312 C 469.847656 546.285156 469.609375 547.265625 469.429688 548.257812 C 469.246094 549.25 469.125 550.25 469.058594 551.253906 C 468.992188 552.261719 468.984375 553.269531 469.039062 554.277344 C 469.089844 555.285156 469.199219 556.285156 469.367188 557.277344 C 469.535156 558.273438 469.757812 559.253906 470.042969 560.222656 C 470.324219 561.191406 470.660156 562.140625 471.050781 563.070312 C 471.445312 564 471.886719 564.90625 472.386719 565.78125 C 472.882812 566.660156 473.429688 567.507812 474.023438 568.320312 C 474.617188 569.136719 475.257812 569.914062 475.945312 570.65625 C 476.628906 571.394531 477.355469 572.09375 478.125 572.75 C 478.890625 573.40625 479.691406 574.015625 480.53125 574.578125 C 481.367188 575.144531 482.234375 575.65625 483.132812 576.121094 C 484.027344 576.582031 484.949219 576.992188 485.894531 577.347656 C 486.839844 577.703125 487.800781 578.003906 488.78125 578.25 C 489.757812 578.492188 490.75 578.679688 491.75 578.8125 C 492.75 578.941406 493.757812 579.011719 494.765625 579.027344 C 495.777344 579.039062 496.78125 578.992188 497.789062 578.890625 C 498.792969 578.785156 499.785156 578.625 500.773438 578.40625 C 501.757812 578.1875 502.726562 577.914062 503.679688 577.582031 C 504.636719 577.25 505.566406 576.867188 506.476562 576.425781 C 507.382812 575.988281 508.265625 575.496094 509.117188 574.957031 C 509.96875 574.414062 510.785156 573.828125 511.570312 573.191406 C 512.355469 572.554688 513.097656 571.875 513.804688 571.152344 C 514.507812 570.433594 515.167969 569.671875 515.785156 568.871094 C 516.402344 568.074219 516.96875 567.242188 517.488281 566.378906 C 518.011719 565.511719 518.476562 564.621094 518.894531 563.703125 C 519.3125 562.78125 519.671875 561.84375 519.980469 560.882812 C 520.289062 559.921875 520.539062 558.945312 520.730469 557.957031 C 520.925781 556.964844 521.0625 555.96875 521.140625 554.960938 C 521.21875 553.957031 521.238281 552.949219 521.199219 551.941406 C 521.160156 550.933594 521.0625 549.933594 520.910156 548.933594 C 520.753906 547.9375 520.542969 546.953125 520.273438 545.980469 C 520.003906 545.007812 519.679688 544.054688 519.296875 543.121094 C 518.917969 542.1875 518.484375 541.277344 518 540.394531 C 517.511719 539.507812 516.976562 538.65625 516.394531 537.832031 C 515.808594 537.011719 515.179688 536.226562 514.5 535.476562 C 513.824219 534.726562 513.109375 534.019531 512.351562 533.351562 C 509.96875 531.261719 507.296875 529.65625 504.328125 528.539062 C 501.363281 527.417969 498.292969 526.859375 495.121094 526.859375 Z M 495.121094 526.859375 " fill-opacity="1" fill-rule="nonzero"/><path fill="rgb(6.269836%, 18.03894%, 44.309998%)" d="M 510.09375 553.019531 C 510.09375 554 509.996094 554.972656 509.804688 555.9375 C 509.613281 556.902344 509.328125 557.839844 508.953125 558.746094 C 508.574219 559.652344 508.113281 560.515625 507.566406 561.332031 C 507.023438 562.148438 506.402344 562.90625 505.707031 563.601562 C 505.011719 564.296875 504.253906 564.917969 503.433594 565.460938 C 502.617188 566.007812 501.753906 566.46875 500.847656 566.84375 C 499.9375 567.222656 499 567.503906 498.035156 567.695312 C 497.070312 567.890625 496.097656 567.984375 495.113281 567.984375 C 494.128906 567.984375 493.15625 567.890625 492.191406 567.695312 C 491.226562 567.503906 490.289062 567.222656 489.382812 566.84375 C 488.472656 566.46875 487.609375 566.007812 486.792969 565.460938 C 485.972656 564.917969 485.21875 564.296875 484.523438 563.601562 C 483.828125 562.90625 483.207031 562.148438 482.660156 561.332031 C 482.113281 560.515625 481.652344 559.652344 481.273438 558.746094 C 480.898438 557.839844 480.613281 556.902344 480.421875 555.9375 C 480.230469 554.972656 480.132812 554 480.132812 553.019531 C 480.132812 552.035156 480.230469 551.0625 480.421875 550.097656 C 480.613281 549.136719 480.898438 548.199219 481.273438 547.292969 C 481.652344 546.382812 482.113281 545.519531 482.660156 544.703125 C 483.207031 543.886719 483.828125 543.128906 484.523438 542.4375 C 485.21875 541.742188 485.972656 541.121094 486.792969 540.574219 C 487.609375 540.027344 488.472656 539.566406 489.382812 539.191406 C 490.289062 538.816406 491.226562 538.53125 492.191406 538.339844 C 493.15625 538.148438 494.128906 538.050781 495.113281 538.050781 C 496.097656 538.050781 497.070312 538.148438 498.035156 538.339844 C 499 538.53125 499.9375 538.816406 500.847656 539.191406 C 501.753906 539.566406 502.617188 540.027344 503.433594 540.574219 C 504.253906 541.121094 505.011719 541.742188 505.707031 542.4375 C 506.402344 543.128906 507.023438 543.886719 507.566406 544.703125 C 508.113281 545.519531 508.574219 546.382812 508.953125 547.292969 C 509.328125 548.199219 509.613281 549.136719 509.804688 550.097656 C 509.996094 551.0625 510.09375 552.035156 510.09375 553.019531 Z M 510.09375 553.019531 " fill-opacity="1" fill-rule="nonzero"/><path fill="rgb(6.269836%, 18.03894%, 44.309998%)" d="M 557.152344 296.417969 C 557.9375 296.417969 558.71875 296.460938 559.496094 296.550781 C 560.277344 296.640625 561.046875 296.773438 561.8125 296.949219 C 562.574219 297.125 563.324219 297.34375 564.066406 297.605469 C 564.804688 297.867188 565.523438 298.167969 566.230469 298.511719 C 566.933594 298.855469 567.617188 299.234375 568.277344 299.65625 C 568.941406 300.074219 569.574219 300.53125 570.183594 301.023438 C 570.792969 301.515625 571.375 302.042969 571.925781 302.597656 C 572.472656 303.15625 572.992188 303.742188 573.472656 304.359375 C 573.957031 304.976562 574.40625 305.617188 574.816406 306.285156 C 575.226562 306.953125 575.597656 307.640625 575.929688 308.347656 C 576.261719 309.058594 576.554688 309.785156 576.804688 310.527344 C 577.054688 311.265625 577.261719 312.019531 577.429688 312.785156 C 577.59375 313.550781 577.714844 314.324219 577.792969 315.105469 C 577.867188 315.882812 577.902344 316.664062 577.890625 317.445312 C 577.878906 318.230469 577.824219 319.007812 577.722656 319.785156 C 577.625 320.5625 577.480469 321.332031 577.292969 322.09375 C 577.105469 322.851562 576.878906 323.601562 576.605469 324.335938 C 576.335938 325.070312 576.023438 325.785156 575.667969 326.484375 C 575.316406 327.183594 574.925781 327.859375 574.496094 328.515625 C 574.066406 329.171875 573.601562 329.800781 573.097656 330.402344 C 572.597656 331.003906 572.0625 331.574219 571.5 332.117188 C 570.933594 332.660156 570.335938 333.167969 569.714844 333.640625 C 569.089844 334.117188 568.441406 334.554688 567.769531 334.953125 C 567.097656 335.355469 566.402344 335.71875 565.6875 336.039062 C 564.972656 336.363281 564.242188 336.644531 563.5 336.882812 C 562.753906 337.121094 561.996094 337.320312 561.226562 337.472656 C 560.457031 337.628906 559.683594 337.738281 558.902344 337.804688 C 558.121094 337.871094 557.339844 337.894531 556.554688 337.871094 C 555.773438 337.847656 554.992188 337.78125 554.21875 337.671875 C 553.441406 337.5625 552.675781 337.40625 551.914062 337.210938 C 551.15625 337.011719 550.414062 336.773438 549.679688 336.492188 C 548.949219 336.210938 548.238281 335.886719 547.542969 335.527344 C 546.847656 335.164062 546.175781 334.761719 545.527344 334.324219 C 544.875 333.886719 544.253906 333.414062 543.660156 332.902344 C 543.0625 332.394531 542.5 331.855469 541.964844 331.28125 C 541.429688 330.707031 540.929688 330.105469 540.464844 329.476562 C 539.996094 328.847656 539.566406 328.195312 539.175781 327.515625 C 538.785156 326.835938 538.433594 326.140625 538.121094 325.421875 C 537.804688 324.703125 537.535156 323.96875 537.304688 323.222656 C 537.074219 322.472656 536.890625 321.714844 536.746094 320.945312 C 536.601562 320.175781 536.503906 319.398438 536.449219 318.617188 C 536.390625 317.835938 536.378906 317.054688 536.414062 316.273438 C 536.445312 315.492188 536.523438 314.710938 536.644531 313.9375 C 536.765625 313.164062 536.929688 312.402344 537.140625 311.644531 C 537.347656 310.890625 537.597656 310.152344 537.890625 309.425781 C 538.179688 308.695312 538.511719 307.988281 538.886719 307.300781 C 539.257812 306.609375 539.667969 305.945312 540.117188 305.304688 C 540.5625 304.660156 541.046875 304.046875 541.5625 303.457031 C 542.535156 302.347656 543.617188 301.355469 544.800781 300.476562 C 545.988281 299.601562 547.25 298.855469 548.597656 298.25 C 549.941406 297.644531 551.335938 297.183594 552.777344 296.875 C 554.21875 296.566406 555.679688 296.414062 557.152344 296.417969 M 557.152344 291.066406 C 556.144531 291.066406 555.140625 291.125 554.136719 291.242188 C 553.132812 291.359375 552.140625 291.53125 551.160156 291.765625 C 550.175781 291.996094 549.210938 292.28125 548.261719 292.625 C 547.3125 292.96875 546.386719 293.367188 545.484375 293.816406 C 544.582031 294.269531 543.707031 294.769531 542.863281 295.320312 C 542.019531 295.875 541.210938 296.472656 540.433594 297.117188 C 539.660156 297.765625 538.925781 298.453125 538.230469 299.183594 C 537.535156 299.914062 536.882812 300.683594 536.277344 301.488281 C 535.671875 302.296875 535.117188 303.136719 534.605469 304.007812 C 534.097656 304.878906 533.640625 305.773438 533.238281 306.699219 C 532.832031 307.621094 532.484375 308.566406 532.191406 309.53125 C 531.894531 310.496094 531.65625 311.472656 531.476562 312.464844 C 531.296875 313.457031 531.171875 314.457031 531.105469 315.464844 C 531.042969 316.46875 531.035156 317.476562 531.085938 318.484375 C 531.140625 319.492188 531.25 320.492188 531.417969 321.484375 C 531.585938 322.480469 531.808594 323.460938 532.09375 324.429688 C 532.375 325.398438 532.710938 326.347656 533.101562 327.273438 C 533.496094 328.203125 533.941406 329.105469 534.4375 329.984375 C 534.933594 330.863281 535.480469 331.707031 536.074219 332.523438 C 536.671875 333.335938 537.3125 334.113281 537.996094 334.855469 C 538.679688 335.59375 539.40625 336.292969 540.175781 336.949219 C 540.941406 337.605469 541.742188 338.214844 542.578125 338.777344 C 543.417969 339.339844 544.285156 339.851562 545.179688 340.316406 C 546.078125 340.777344 547 341.1875 547.941406 341.542969 C 548.886719 341.898438 549.847656 342.199219 550.828125 342.441406 C 551.808594 342.6875 552.796875 342.875 553.796875 343.003906 C 554.796875 343.132812 555.804688 343.203125 556.8125 343.21875 C 557.820312 343.230469 558.828125 343.183594 559.832031 343.082031 C 560.835938 342.976562 561.832031 342.816406 562.816406 342.597656 C 563.800781 342.378906 564.769531 342.105469 565.722656 341.773438 C 566.675781 341.441406 567.609375 341.058594 568.515625 340.617188 C 569.425781 340.179688 570.304688 339.6875 571.15625 339.148438 C 572.007812 338.605469 572.824219 338.019531 573.609375 337.382812 C 574.390625 336.746094 575.136719 336.066406 575.839844 335.34375 C 576.542969 334.625 577.203125 333.863281 577.820312 333.0625 C 578.4375 332.265625 579.003906 331.433594 579.523438 330.570312 C 580.042969 329.707031 580.511719 328.8125 580.929688 327.894531 C 581.34375 326.976562 581.707031 326.035156 582.011719 325.078125 C 582.320312 324.117188 582.570312 323.140625 582.765625 322.152344 C 582.957031 321.160156 583.09375 320.164062 583.171875 319.160156 C 583.25 318.152344 583.269531 317.148438 583.230469 316.140625 C 583.191406 315.132812 583.09375 314.128906 582.941406 313.132812 C 582.785156 312.136719 582.570312 311.152344 582.300781 310.179688 C 582.03125 309.210938 581.707031 308.257812 581.328125 307.324219 C 580.949219 306.386719 580.515625 305.480469 580.03125 304.59375 C 579.542969 303.710938 579.007812 302.859375 578.425781 302.035156 C 577.839844 301.214844 577.210938 300.429688 576.53125 299.679688 C 575.855469 298.933594 575.140625 298.222656 574.382812 297.558594 C 572 295.46875 569.324219 293.863281 566.359375 292.746094 C 563.394531 291.628906 560.324219 291.070312 557.152344 291.066406 Z M 557.152344 291.066406 " fill-opacity="1" fill-rule="nonzero"/><path fill="rgb(6.269836%, 18.03894%, 44.309998%)" d="M 572.125 317.222656 C 572.125 318.207031 572.027344 319.179688 571.835938 320.144531 C 571.644531 321.109375 571.359375 322.042969 570.984375 322.953125 C 570.609375 323.859375 570.144531 324.722656 569.601562 325.539062 C 569.054688 326.355469 568.433594 327.113281 567.738281 327.804688 C 567.042969 328.5 566.285156 329.121094 565.46875 329.667969 C 564.648438 330.214844 563.785156 330.675781 562.878906 331.050781 C 561.96875 331.425781 561.03125 331.710938 560.066406 331.902344 C 559.101562 332.09375 558.128906 332.191406 557.144531 332.191406 C 556.160156 332.191406 555.1875 332.09375 554.222656 331.902344 C 553.257812 331.710938 552.320312 331.425781 551.414062 331.050781 C 550.503906 330.675781 549.640625 330.214844 548.824219 329.667969 C 548.003906 329.121094 547.25 328.5 546.554688 327.804688 C 545.859375 327.113281 545.238281 326.355469 544.691406 325.539062 C 544.144531 324.722656 543.683594 323.859375 543.304688 322.953125 C 542.929688 322.042969 542.644531 321.109375 542.453125 320.144531 C 542.261719 319.179688 542.167969 318.207031 542.167969 317.222656 C 542.167969 316.242188 542.261719 315.269531 542.453125 314.304688 C 542.644531 313.339844 542.929688 312.40625 543.304688 311.496094 C 543.683594 310.589844 544.144531 309.726562 544.691406 308.910156 C 545.238281 308.09375 545.859375 307.335938 546.554688 306.640625 C 547.25 305.945312 548.003906 305.324219 548.824219 304.78125 C 549.640625 304.234375 550.503906 303.773438 551.414062 303.398438 C 552.320312 303.019531 553.257812 302.738281 554.222656 302.546875 C 555.1875 302.355469 556.160156 302.257812 557.144531 302.257812 C 558.128906 302.257812 559.101562 302.355469 560.066406 302.546875 C 561.03125 302.738281 561.96875 303.019531 562.878906 303.398438 C 563.785156 303.773438 564.648438 304.234375 565.46875 304.78125 C 566.285156 305.324219 567.042969 305.945312 567.738281 306.640625 C 568.433594 307.335938 569.054688 308.09375 569.601562 308.910156 C 570.144531 309.726562 570.609375 310.589844 570.984375 311.496094 C 571.359375 312.40625 571.644531 313.339844 571.835938 314.304688 C 572.027344 315.269531 572.125 316.242188 572.125 317.222656 Z M 572.125 317.222656 " fill-opacity="1" fill-rule="nonzero"/><path fill="rgb(6.269836%, 18.03894%, 44.309998%)" d="M 950.980469 277.429688 C 951.765625 277.429688 952.546875 277.472656 953.324219 277.5625 C 954.105469 277.648438 954.875 277.78125 955.636719 277.957031 C 956.402344 278.132812 957.152344 278.351562 957.894531 278.613281 C 958.632812 278.871094 959.351562 279.175781 960.058594 279.515625 C 960.761719 279.859375 961.445312 280.238281 962.109375 280.660156 C 962.769531 281.078125 963.40625 281.535156 964.015625 282.027344 C 964.625 282.519531 965.203125 283.042969 965.753906 283.601562 C 966.304688 284.15625 966.824219 284.742188 967.308594 285.359375 C 967.789062 285.976562 968.238281 286.617188 968.648438 287.28125 C 969.0625 287.949219 969.433594 288.636719 969.765625 289.347656 C 970.097656 290.054688 970.390625 290.78125 970.640625 291.519531 C 970.894531 292.261719 971.101562 293.015625 971.265625 293.78125 C 971.433594 294.546875 971.554688 295.320312 971.632812 296.097656 C 971.710938 296.878906 971.742188 297.660156 971.734375 298.441406 C 971.722656 299.222656 971.667969 300.003906 971.570312 300.78125 C 971.46875 301.558594 971.328125 302.324219 971.140625 303.085938 C 970.953125 303.847656 970.726562 304.59375 970.457031 305.328125 C 970.183594 306.0625 969.871094 306.78125 969.519531 307.480469 C 969.167969 308.179688 968.777344 308.855469 968.347656 309.511719 C 967.917969 310.167969 967.453125 310.796875 966.953125 311.398438 C 966.453125 312 965.921875 312.574219 965.355469 313.117188 C 964.789062 313.660156 964.195312 314.167969 963.574219 314.640625 C 962.949219 315.117188 962.300781 315.554688 961.628906 315.957031 C 960.957031 316.359375 960.261719 316.71875 959.550781 317.042969 C 958.835938 317.367188 958.105469 317.648438 957.359375 317.890625 C 956.613281 318.128906 955.855469 318.328125 955.089844 318.480469 C 954.320312 318.636719 953.546875 318.746094 952.765625 318.816406 C 951.984375 318.882812 951.203125 318.90625 950.417969 318.882812 C 949.636719 318.863281 948.855469 318.796875 948.082031 318.6875 C 947.304688 318.578125 946.539062 318.425781 945.777344 318.226562 C 945.019531 318.03125 944.273438 317.792969 943.542969 317.511719 C 942.8125 317.230469 942.097656 316.910156 941.402344 316.546875 C 940.707031 316.1875 940.035156 315.785156 939.386719 315.347656 C 938.738281 314.910156 938.113281 314.4375 937.519531 313.929688 C 936.921875 313.421875 936.355469 312.882812 935.820312 312.308594 C 935.285156 311.738281 934.785156 311.136719 934.320312 310.507812 C 933.851562 309.878906 933.421875 309.226562 933.03125 308.546875 C 932.636719 307.871094 932.285156 307.171875 931.972656 306.453125 C 931.65625 305.738281 931.386719 305.003906 931.15625 304.253906 C 930.925781 303.507812 930.738281 302.75 930.59375 301.980469 C 930.449219 301.210938 930.347656 300.433594 930.292969 299.652344 C 930.234375 298.871094 930.222656 298.089844 930.253906 297.308594 C 930.289062 296.527344 930.363281 295.746094 930.484375 294.972656 C 930.605469 294.199219 930.769531 293.4375 930.976562 292.679688 C 931.183594 291.925781 931.433594 291.183594 931.722656 290.457031 C 932.015625 289.730469 932.347656 289.023438 932.71875 288.332031 C 933.089844 287.644531 933.5 286.976562 933.945312 286.335938 C 934.390625 285.691406 934.875 285.074219 935.390625 284.488281 C 936.363281 283.378906 937.441406 282.382812 938.628906 281.503906 C 939.8125 280.628906 941.078125 279.882812 942.421875 279.277344 C 943.765625 278.667969 945.160156 278.210938 946.605469 277.902344 C 948.046875 277.59375 949.507812 277.441406 950.980469 277.441406 M 950.980469 272.09375 C 949.972656 272.09375 948.964844 272.15625 947.964844 272.273438 C 946.960938 272.390625 945.96875 272.566406 944.988281 272.796875 C 944.003906 273.03125 943.039062 273.320312 942.089844 273.664062 C 941.144531 274.007812 940.21875 274.40625 939.316406 274.859375 C 938.414062 275.3125 937.539062 275.8125 936.695312 276.367188 C 935.851562 276.921875 935.042969 277.519531 934.269531 278.167969 C 933.496094 278.8125 932.761719 279.503906 932.066406 280.234375 C 931.371094 280.96875 930.722656 281.738281 930.117188 282.542969 C 929.511719 283.351562 928.957031 284.191406 928.449219 285.0625 C 927.941406 285.933594 927.488281 286.832031 927.082031 287.757812 C 926.679688 288.683594 926.332031 289.625 926.039062 290.589844 C 925.746094 291.554688 925.507812 292.535156 925.328125 293.527344 C 925.148438 294.519531 925.027344 295.519531 924.964844 296.523438 C 924.898438 297.53125 924.894531 298.539062 924.949219 299.546875 C 925 300.550781 925.113281 301.554688 925.28125 302.546875 C 925.449219 303.542969 925.675781 304.523438 925.960938 305.492188 C 926.242188 306.457031 926.582031 307.40625 926.972656 308.335938 C 927.367188 309.265625 927.8125 310.167969 928.3125 311.042969 C 928.808594 311.921875 929.355469 312.765625 929.953125 313.582031 C 930.546875 314.394531 931.191406 315.171875 931.875 315.910156 C 932.5625 316.648438 933.289062 317.347656 934.058594 318 C 934.824219 318.65625 935.625 319.265625 936.464844 319.828125 C 937.304688 320.390625 938.171875 320.902344 939.066406 321.363281 C 939.964844 321.824219 940.886719 322.230469 941.832031 322.585938 C 942.777344 322.941406 943.738281 323.242188 944.71875 323.484375 C 945.695312 323.726562 946.6875 323.914062 947.6875 324.042969 C 948.6875 324.171875 949.695312 324.242188 950.703125 324.253906 C 951.714844 324.265625 952.71875 324.21875 953.722656 324.113281 C 954.726562 324.007812 955.722656 323.847656 956.707031 323.625 C 957.691406 323.40625 958.660156 323.132812 959.613281 322.796875 C 960.566406 322.464844 961.496094 322.082031 962.40625 321.640625 C 963.3125 321.199219 964.191406 320.710938 965.042969 320.167969 C 965.894531 319.625 966.710938 319.035156 967.496094 318.398438 C 968.277344 317.761719 969.019531 317.082031 969.726562 316.359375 C 970.429688 315.636719 971.089844 314.875 971.703125 314.078125 C 972.320312 313.277344 972.886719 312.445312 973.40625 311.582031 C 973.921875 310.714844 974.390625 309.824219 974.804688 308.90625 C 975.222656 307.984375 975.582031 307.046875 975.886719 306.085938 C 976.195312 305.125 976.445312 304.148438 976.636719 303.15625 C 976.828125 302.167969 976.964844 301.171875 977.042969 300.164062 C 977.117188 299.160156 977.136719 298.152344 977.097656 297.144531 C 977.058594 296.136719 976.960938 295.136719 976.804688 294.140625 C 976.648438 293.144531 976.433594 292.160156 976.164062 291.1875 C 975.894531 290.214844 975.566406 289.261719 975.1875 288.328125 C 974.804688 287.394531 974.371094 286.488281 973.886719 285.605469 C 973.398438 284.71875 972.863281 283.867188 972.277344 283.046875 C 971.691406 282.226562 971.0625 281.441406 970.386719 280.691406 C 969.707031 279.941406 968.992188 279.238281 968.230469 278.570312 C 965.851562 276.480469 963.175781 274.875 960.210938 273.757812 C 957.242188 272.640625 954.175781 272.082031 951.003906 272.082031 Z M 950.980469 272.09375 " fill-opacity="1" fill-rule="nonzero"/><path fill="rgb(6.269836%, 18.03894%, 44.309998%)" d="M 965.957031 298.238281 C 965.957031 299.21875 965.859375 300.191406 965.667969 301.15625 C 965.476562 302.121094 965.191406 303.054688 964.816406 303.964844 C 964.441406 304.871094 963.976562 305.734375 963.433594 306.550781 C 962.886719 307.367188 962.265625 308.125 961.570312 308.820312 C 960.875 309.515625 960.117188 310.132812 959.300781 310.679688 C 958.480469 311.226562 957.617188 311.6875 956.710938 312.0625 C 955.800781 312.4375 954.863281 312.722656 953.898438 312.914062 C 952.933594 313.105469 951.960938 313.203125 950.976562 313.203125 C 949.992188 313.203125 949.019531 313.105469 948.054688 312.914062 C 947.089844 312.722656 946.152344 312.4375 945.246094 312.0625 C 944.335938 311.6875 943.472656 311.226562 942.65625 310.679688 C 941.835938 310.132812 941.082031 309.515625 940.386719 308.820312 C 939.691406 308.125 939.070312 307.367188 938.523438 306.550781 C 937.976562 305.734375 937.515625 304.871094 937.136719 303.964844 C 936.761719 303.054688 936.476562 302.121094 936.285156 301.15625 C 936.09375 300.191406 935.996094 299.21875 935.996094 298.238281 C 935.996094 297.253906 936.09375 296.28125 936.285156 295.316406 C 936.476562 294.351562 936.761719 293.417969 937.136719 292.507812 C 937.515625 291.601562 937.976562 290.738281 938.523438 289.921875 C 939.070312 289.105469 939.691406 288.347656 940.386719 287.652344 C 941.082031 286.957031 941.835938 286.339844 942.65625 285.792969 C 943.472656 285.246094 944.335938 284.785156 945.246094 284.410156 C 946.152344 284.035156 947.089844 283.75 948.054688 283.558594 C 949.019531 283.367188 949.992188 283.269531 950.976562 283.269531 C 951.960938 283.269531 952.933594 283.367188 953.898438 283.558594 C 954.863281 283.75 955.800781 284.035156 956.710938 284.410156 C 957.617188 284.785156 958.480469 285.246094 959.300781 285.792969 C 960.117188 286.339844 960.875 286.957031 961.570312 287.652344 C 962.265625 288.347656 962.886719 289.105469 963.433594 289.921875 C 963.976562 290.738281 964.441406 291.601562 964.816406 292.507812 C 965.191406 293.417969 965.476562 294.351562 965.667969 295.316406 C 965.859375 296.28125 965.957031 297.253906 965.957031 298.238281 Z M 965.957031 298.238281 " fill-opacity="1" fill-rule="nonzero"/><path fill="rgb(6.269836%, 18.03894%, 44.309998%)" d="M 883.3125 376.207031 C 884.097656 376.207031 884.878906 376.253906 885.65625 376.34375 C 886.433594 376.433594 887.207031 376.566406 887.96875 376.742188 C 888.734375 376.921875 889.484375 377.140625 890.222656 377.402344 C 890.960938 377.664062 891.679688 377.964844 892.386719 378.308594 C 893.089844 378.652344 893.769531 379.035156 894.433594 379.457031 C 895.09375 379.878906 895.726562 380.335938 896.335938 380.828125 C 896.945312 381.320312 897.523438 381.84375 898.074219 382.402344 C 898.621094 382.960938 899.140625 383.550781 899.621094 384.167969 C 900.105469 384.78125 900.550781 385.425781 900.960938 386.09375 C 901.371094 386.757812 901.742188 387.449219 902.074219 388.15625 C 902.40625 388.867188 902.695312 389.589844 902.945312 390.332031 C 903.195312 391.074219 903.402344 391.828125 903.566406 392.59375 C 903.730469 393.359375 903.851562 394.132812 903.925781 394.910156 C 904.003906 395.691406 904.035156 396.472656 904.023438 397.253906 C 904.011719 398.039062 903.953125 398.816406 903.855469 399.59375 C 903.753906 400.371094 903.609375 401.136719 903.421875 401.898438 C 903.234375 402.65625 903.003906 403.40625 902.734375 404.140625 C 902.460938 404.875 902.148438 405.589844 901.792969 406.289062 C 901.441406 406.988281 901.050781 407.664062 900.621094 408.316406 C 900.1875 408.972656 899.722656 409.601562 899.222656 410.203125 C 898.71875 410.804688 898.1875 411.375 897.621094 411.914062 C 897.054688 412.457031 896.460938 412.964844 895.835938 413.4375 C 895.210938 413.914062 894.5625 414.347656 893.890625 414.75 C 893.21875 415.148438 892.523438 415.511719 891.808594 415.832031 C 891.09375 416.15625 890.363281 416.4375 889.617188 416.675781 C 888.875 416.914062 888.117188 417.109375 887.347656 417.265625 C 886.578125 417.417969 885.804688 417.527344 885.023438 417.59375 C 884.242188 417.660156 883.460938 417.679688 882.679688 417.660156 C 881.894531 417.636719 881.117188 417.570312 880.339844 417.457031 C 879.5625 417.347656 878.796875 417.195312 878.039062 416.996094 C 877.28125 416.796875 876.535156 416.558594 875.804688 416.277344 C 875.074219 415.996094 874.363281 415.671875 873.667969 415.308594 C 872.972656 414.949219 872.300781 414.546875 871.652344 414.109375 C 871.003906 413.667969 870.382812 413.195312 869.785156 412.6875 C 869.191406 412.179688 868.625 411.636719 868.09375 411.0625 C 867.558594 410.492188 867.058594 409.890625 866.59375 409.261719 C 866.125 408.632812 865.699219 407.976562 865.304688 407.300781 C 864.914062 406.621094 864.5625 405.921875 864.25 405.207031 C 863.9375 404.488281 863.667969 403.753906 863.4375 403.003906 C 863.207031 402.257812 863.023438 401.5 862.878906 400.726562 C 862.734375 399.957031 862.636719 399.183594 862.582031 398.402344 C 862.523438 397.621094 862.515625 396.839844 862.546875 396.058594 C 862.582031 395.277344 862.65625 394.5 862.777344 393.726562 C 862.898438 392.953125 863.066406 392.1875 863.273438 391.433594 C 863.480469 390.679688 863.730469 389.9375 864.023438 389.210938 C 864.316406 388.484375 864.648438 387.777344 865.019531 387.089844 C 865.390625 386.398438 865.800781 385.734375 866.25 385.089844 C 866.695312 384.449219 867.179688 383.832031 867.695312 383.246094 C 868.671875 382.136719 869.75 381.140625 870.9375 380.261719 C 872.128906 379.382812 873.394531 378.640625 874.742188 378.035156 C 876.089844 377.425781 877.484375 376.96875 878.929688 376.660156 C 880.375 376.351562 881.835938 376.199219 883.3125 376.207031 M 883.3125 370.855469 C 882.304688 370.855469 881.300781 370.914062 880.296875 371.03125 C 879.292969 371.148438 878.300781 371.320312 877.320312 371.550781 C 876.335938 371.78125 875.371094 372.070312 874.421875 372.414062 C 873.472656 372.757812 872.546875 373.152344 871.644531 373.605469 C 870.742188 374.054688 869.867188 374.554688 869.023438 375.109375 C 868.179688 375.660156 867.367188 376.257812 866.59375 376.90625 C 865.816406 377.550781 865.082031 378.238281 864.386719 378.96875 C 863.691406 379.699219 863.042969 380.46875 862.4375 381.277344 C 861.828125 382.082031 861.273438 382.921875 860.765625 383.792969 C 860.253906 384.664062 859.800781 385.558594 859.394531 386.484375 C 858.992188 387.40625 858.640625 388.351562 858.347656 389.316406 C 858.050781 390.28125 857.8125 391.257812 857.632812 392.25 C 857.449219 393.242188 857.328125 394.242188 857.261719 395.25 C 857.199219 396.253906 857.191406 397.261719 857.242188 398.269531 C 857.292969 399.277344 857.402344 400.277344 857.570312 401.269531 C 857.738281 402.265625 857.964844 403.246094 858.246094 404.214844 C 858.527344 405.183594 858.867188 406.132812 859.257812 407.0625 C 859.648438 407.988281 860.09375 408.894531 860.589844 409.769531 C 861.085938 410.648438 861.632812 411.496094 862.230469 412.308594 C 862.824219 413.125 863.464844 413.902344 864.148438 414.640625 C 864.835938 415.382812 865.5625 416.078125 866.328125 416.734375 C 867.09375 417.390625 867.894531 418 868.734375 418.5625 C 869.570312 419.128906 870.4375 419.640625 871.335938 420.101562 C 872.230469 420.566406 873.152344 420.972656 874.097656 421.332031 C 875.039062 421.6875 876 421.988281 876.980469 422.230469 C 877.960938 422.476562 878.949219 422.664062 879.949219 422.792969 C 880.953125 422.921875 881.957031 422.992188 882.964844 423.007812 C 883.976562 423.019531 884.980469 422.972656 885.984375 422.871094 C 886.988281 422.765625 887.984375 422.605469 888.96875 422.386719 C 889.953125 422.167969 890.925781 421.894531 891.878906 421.5625 C 892.832031 421.230469 893.761719 420.847656 894.671875 420.40625 C 895.578125 419.96875 896.457031 419.476562 897.308594 418.9375 C 898.160156 418.394531 898.980469 417.808594 899.761719 417.171875 C 900.546875 416.535156 901.289062 415.855469 901.996094 415.132812 C 902.699219 414.414062 903.359375 413.652344 903.976562 412.855469 C 904.59375 412.054688 905.160156 411.222656 905.679688 410.359375 C 906.199219 409.496094 906.667969 408.601562 907.082031 407.683594 C 907.5 406.765625 907.859375 405.828125 908.167969 404.867188 C 908.476562 403.90625 908.726562 402.929688 908.917969 401.941406 C 909.113281 400.949219 909.25 399.953125 909.328125 398.949219 C 909.40625 397.941406 909.425781 396.9375 909.386719 395.929688 C 909.347656 394.921875 909.25 393.917969 909.09375 392.921875 C 908.941406 391.925781 908.726562 390.941406 908.457031 389.96875 C 908.1875 389 907.863281 388.046875 907.484375 387.109375 C 907.105469 386.175781 906.671875 385.269531 906.183594 384.382812 C 905.699219 383.5 905.164062 382.648438 904.578125 381.824219 C 903.996094 381.003906 903.363281 380.21875 902.6875 379.46875 C 902.011719 378.71875 901.296875 378.011719 900.539062 377.347656 C 898.15625 375.257812 895.484375 373.652344 892.515625 372.535156 C 889.550781 371.417969 886.484375 370.859375 883.3125 370.855469 Z M 883.3125 370.855469 " fill-opacity="1" fill-rule="nonzero"/><path fill="rgb(6.269836%, 18.03894%, 44.309998%)" d="M 898.285156 397.011719 C 898.285156 397.996094 898.1875 398.96875 897.996094 399.933594 C 897.804688 400.894531 897.519531 401.832031 897.144531 402.738281 C 896.769531 403.648438 896.304688 404.511719 895.761719 405.328125 C 895.214844 406.144531 894.59375 406.898438 893.898438 407.59375 C 893.203125 408.289062 892.445312 408.910156 891.628906 409.457031 C 890.808594 410.003906 889.945312 410.464844 889.039062 410.839844 C 888.128906 411.214844 887.191406 411.5 886.226562 411.691406 C 885.261719 411.882812 884.289062 411.980469 883.304688 411.980469 C 882.320312 411.980469 881.347656 411.882812 880.382812 411.691406 C 879.417969 411.5 878.480469 411.214844 877.574219 410.839844 C 876.664062 410.464844 875.800781 410.003906 874.984375 409.457031 C 874.164062 408.910156 873.410156 408.289062 872.714844 407.59375 C 872.019531 406.898438 871.398438 406.144531 870.851562 405.328125 C 870.304688 404.511719 869.84375 403.648438 869.464844 402.738281 C 869.089844 401.832031 868.804688 400.894531 868.613281 399.933594 C 868.421875 398.96875 868.324219 397.996094 868.324219 397.011719 C 868.324219 396.03125 868.421875 395.054688 868.613281 394.09375 C 868.804688 393.128906 869.089844 392.191406 869.464844 391.285156 C 869.84375 390.378906 870.304688 389.515625 870.851562 388.699219 C 871.398438 387.878906 872.019531 387.125 872.714844 386.429688 C 873.410156 385.734375 874.164062 385.113281 874.984375 384.570312 C 875.800781 384.023438 876.664062 383.5625 877.574219 383.183594 C 878.480469 382.808594 879.417969 382.527344 880.382812 382.332031 C 881.347656 382.140625 882.320312 382.046875 883.304688 382.046875 C 884.289062 382.046875 885.261719 382.140625 886.226562 382.332031 C 887.191406 382.527344 888.128906 382.808594 889.039062 383.183594 C 889.945312 383.5625 890.808594 384.023438 891.628906 384.570312 C 892.445312 385.113281 893.203125 385.734375 893.898438 386.429688 C 894.59375 387.125 895.214844 387.878906 895.761719 388.699219 C 896.304688 389.515625 896.769531 390.378906 897.144531 391.285156 C 897.519531 392.191406 897.804688 393.128906 897.996094 394.09375 C 898.1875 395.054688 898.285156 396.03125 898.285156 397.011719 Z M 898.285156 397.011719 " fill-opacity="1" fill-rule="nonzero"/></svg>